<svg xmlns="http://www.w3.org/2000/svg" viewBox="0 0 888 82" xmlns:xlink="http://www.w3.org/1999/xlink"><defs><path d="M55.684 23.5c1.654 0 3 1.346 3 3v28c0 1.654-1.346 3-3 3h-28c-1.654 0-3-1.346-3-3v-28c0-1.654 1.346-3 3-3h28m0-1h-28a4 4 0 0 0-4 4v28a4 4 0 0 0 4 4h28a4 4 0 0 0 4-4v-28a4 4 0 0 0-4-4Zm237.5 10h-43.817c.014.165.025.331.025.5s-.012.335-.025.5h43.817v-1ZM218.893 26h-1c0-10.752 8.748-19.5 19.5-19.5v1c-10.201 0-18.5 8.299-18.5 18.5Z" id="reuse-0"/><path d="M243.393 12.5c-10.752 0-19.5 8.748-19.5 19.5a19.49 19.49 0 0 0 11.5 17.783V69.5h3V71c0 1.378 1.122 2.5 2.5 2.5h5c1.378 0 2.5-1.122 2.5-2.5v-1.5h3V49.783A19.487 19.487 0 0 0 262.893 32c0-10.752-8.748-19.5-19.5-19.5Zm7 56h-3V71c0 .827-.673 1.5-1.5 1.5h-5c-.827 0-1.5-.673-1.5-1.5v-2.5h-3v-11h14v11Zm.302-19.503-.302.13V56.5h-14v-7.373l-.302-.13A18.49 18.49 0 0 1 224.893 32c0-10.201 8.299-18.5 18.5-18.5s18.5 8.299 18.5 18.5c0 7.398-4.396 14.07-11.198 16.997ZM613.159 39.5c.014.165.025.331.025.5s-.012.335-.025.5h94.775v-1h-94.775Zm233.747-13c-1.713-.708-3.591-.336-4.903.976L827.79 41.689V28.294l-12.293-12.293H790.79v49h37V43.103l14.92-14.92a3.445 3.445 0 0 1 3.813-.759 3.445 3.445 0 0 1 2.161 3.233V69c0 1.378-1.121 2.5-2.5 2.5h-94c-1.93 0-3.5-1.57-3.5-3.5V44c0-2.481-2.019-4.5-4.5-4.5h-12.25v1h12.25c1.93 0 3.5 1.57 3.5 3.5v24c0 2.481 2.019 4.5 4.5 4.5h94c1.93 0 3.5-1.57 3.5-3.5V30.657c0-1.854-1.064-3.448-2.778-4.157Zm-31.116-8.792 10.293 10.293H815.79V17.708Zm11 24.981-13.105 13.105-6.807-6.807a6.47 6.47 0 0 0 1.807-4.486c0-3.584-2.916-6.5-6.5-6.5s-6.5 2.916-6.5 6.5 2.916 6.5 6.5 6.5a6.46 6.46 0 0 0 3.946-1.347l7.554 7.554 13.105-13.105v19.898h-35V17h23v12h12v13.688Zm-24.605 7.312c-3.032 0-5.5-2.467-5.5-5.5s2.468-5.5 5.5-5.5 5.5 2.467 5.5 5.5-2.468 5.5-5.5 5.5Z" id="reuse-1"/><path d="M238.813 36.872 209.29 66.394a3.476 3.476 0 0 1-2.469 1.025l-51.132.074h-.005a3.477 3.477 0 0 1-2.473-1.023 3.48 3.48 0 0 1-1.027-2.477v-1.834c.059-1.3.014-1.348-.135-1.503l-.151-.156h-.214c-4.66 0-6.84-.454-8.044-1.676-1.251-1.269-1.517-3.56-1.535-7.324h.079l1.271.006c.421.003.839.006 1.253.006 3.145 0 6.009-.17 7.646-1.796.895-.889 1.33-2.104 1.33-3.716h-1c0 1.332-.338 2.315-1.035 3.006-1.557 1.546-4.778 1.524-8.188 1.5l-1.278-.006h-.078c.004-.895.017-1.86.032-2.911l.031-2.405c.009-.894.016-2.837.016-2.837v-.49l-5.712-.137 8.438-17.443c.046-.106 4.721-10.636 14.781-10.774 5.985-.066 10.535 1.391 13.563 4.378 4.419 4.359 4.93 11.287 4.93 16.118 0 10.422-6.764 16.565-6.832 16.626l-.168.149v11.224h1V51.216c1.106-1.053 7-7.138 7-17.218 0-5.011-.542-12.208-5.228-16.83-3.226-3.182-8.045-4.744-14.279-4.667-10.7.146-15.636 11.264-15.676 11.357l-9.105 18.823 6.286.15c-.002.634-.007 1.731-.014 2.339l-.031 2.401a340.294 340.294 0 0 0-.032 2.925h-19.844c-.004-.904-.017-1.872-.032-2.925l-.031-2.401c-.006-.608-.011-1.705-.014-2.339l6.286-.15-9.096-18.804c-.049-.112-4.985-11.23-15.685-11.376-6.238-.083-11.053 1.484-14.279 4.667-4.686 4.622-5.228 11.819-5.228 16.83 0 10.081 5.894 16.166 7 17.218v12.782c0 1.93-1.57 3.5-3.5 3.5H45.684c-1.93 0-3.5-1.57-3.5-3.5v-5.5h-1v5.5c0 2.481 2.019 4.5 4.5 4.5h41c2.481 0 4.5-2.019 4.5-4.5V50.773l-.168-.149c-.068-.061-6.832-6.205-6.832-16.626 0-4.832.511-11.759 4.93-16.118 3.028-2.987 7.583-4.479 13.563-4.378 10.046.137 14.735 10.668 14.79 10.793l8.429 17.424-5.713.137v.49s.008 1.943.017 2.837l.031 2.405c.015 1.051.028 2.016.032 2.911h-.078l-1.278.006c-3.414.021-6.63.047-8.188-1.5-.696-.691-1.035-1.675-1.035-3.006h-1c0 1.612.435 2.827 1.33 3.716 1.637 1.626 4.501 1.796 7.646 1.796.414 0 .832-.003 1.253-.006l1.271-.006h.079c-.018 3.764-.284 6.056-1.535 7.324-1.204 1.222-3.384 1.676-8.044 1.676-.537 0-.548.376-.586 1.644l.086 5.863 1-.015-.086-5.841c.006-.215.017-.458.028-.653 3.968-.023 6.751-.387 8.314-1.972 1.495-1.516 1.801-3.995 1.821-8.026h19.844c.021 4.032.326 6.51 1.821 8.026 1.558 1.58 4.329 1.946 8.277 1.972a21.53 21.53 0 0 1-.021.638v1.857c0 1.203.469 2.334 1.32 3.185a4.468 4.468 0 0 0 3.179 1.315h.007l51.132-.074a4.47 4.47 0 0 0 3.175-1.318l29.523-29.522a6.052 6.052 0 0 1-.707-.707Zm0 0ZM588.684 71.5h-73V27c0-2.481 2.019-4.5 4.5-4.5h18.343c1.202 0 2.333.468 3.183 1.318l9.656 9.657a3.478 3.478 0 0 0 2.476 1.025h34.843v37Zm-72-1h71v-35h-33.843a4.473 4.473 0 0 1-3.183-1.318l-9.656-9.657a3.478 3.478 0 0 0-2.476-1.025h-18.343c-1.93 0-3.5 1.57-3.5 3.5v43.5Z" id="reuse-2"/><path d="M534.79 53.099c-3.584 0-6.5-2.916-6.5-6.5s2.916-6.5 6.5-6.5 6.5 2.916 6.5 6.5-2.916 6.5-6.5 6.5Zm0-12c-3.032 0-5.5 2.467-5.5 5.5s2.468 5.5 5.5 5.5 5.5-2.467 5.5-5.5-2.468-5.5-5.5-5.5Z" id="reuse-3"/><path d="M545.575 63.385h-21.571v-6.214a5.078 5.078 0 0 1 5.071-5.072h.623l.15.193c1.217 1.565 3.046 2.463 5.017 2.463s3.8-.897 5.017-2.463l.15-.193h.472a5.077 5.077 0 0 1 5.071 5.072v6.214Zm-20.571-1h19.571v-5.214a4.077 4.077 0 0 0-4.06-4.072c-1.405 1.691-3.451 2.656-5.65 2.656s-4.245-.965-5.65-2.656h-.14a4.076 4.076 0 0 0-4.071 4.072v5.214Zm76.204-22.852h-13.45v1h13.454a5.87 5.87 0 0 1-.027-.533c0-.158.012-.312.024-.467Zm31.087 24.903-20.547-20.547a6.06 6.06 0 0 1-.709.706l20.55 20.55c.215-.256.451-.492.706-.709Zm75.639-10.843-11.416 10.793c.257.214.493.451.711.704L708.43 54.5h-.496v-.907Zm-21.221 14.842h-44.557c.017.186.029.374.029.565 0 .147-.012.291-.022.435h44.544c-.01-.144-.022-.288-.022-.435 0-.191.011-.379.029-.565ZM461.714 47c-7.995 0-14.5-6.505-14.5-14.5s6.505-14.5 14.5-14.5 14.5 6.505 14.5 14.5-6.505 14.5-14.5 14.5Zm0-28c-7.444 0-13.5 6.056-13.5 13.5s6.056 13.5 13.5 13.5 13.5-6.056 13.5-13.5-6.056-13.5-13.5-13.5Z" id="reuse-4"/><path d="M486.214 71h-49V57.167c0-6.157 5.009-11.167 11.167-11.167h1.127l.15.193c2.967 3.815 7.426 6.003 12.231 6.003s9.265-2.188 12.231-6.003l.15-.193h.776c6.157 0 11.166 5.009 11.166 11.167V71Zm-48-1h47V57.167c0-5.606-4.561-10.167-10.166-10.167h-.29c-3.157 3.941-7.833 6.196-12.868 6.196s-9.711-2.255-12.868-6.196h-.641c-5.606 0-10.167 4.561-10.167 10.167V70Zm59.397-37h-21.896v-1h21.896c1.93 0 3.5-1.57 3.5-3.5V18c0-2.481 2.019-4.5 4.5-4.5h210.323c2.481 0 4.5 2.019 4.5 4.5v6.5h-1V18c0-1.93-1.57-3.5-3.5-3.5H505.611c-1.93 0-3.5 1.57-3.5 3.5v10.5c0 2.481-2.019 4.5-4.5 4.5Z" id="reuse-5"/><path d="M729.434 36.5h-1v-3c0-4.687-3.813-8.5-8.5-8.5s-8.5 3.813-8.5 8.5v3h-1v-3c0-5.238 4.262-9.5 9.5-9.5s9.5 4.262 9.5 9.5v3Zm-8.25 14h-3v-2.35a3.5 3.5 0 0 1-2-3.15c0-1.93 1.57-3.5 3.5-3.5s3.5 1.57 3.5 3.5a3.5 3.5 0 0 1-2 3.15v2.35Zm-2-1h1v-2.036l.332-.119A2.5 2.5 0 0 0 722.184 45c0-1.378-1.121-2.5-2.5-2.5s-2.5 1.122-2.5 2.5a2.5 2.5 0 0 0 1.668 2.345l.332.119V49.5ZM437.715 63.385h-10.546a4.505 4.505 0 0 1-4.5-4.5V37c0-1.93-1.57-3.5-3.5-3.5h-6.502v-1h6.502c2.481 0 4.5 2.019 4.5 4.5v21.885c0 1.93 1.57 3.5 3.5 3.5h10.546v1ZM243.393 39.5c-3.584 0-6.5-2.916-6.5-6.5s2.916-6.5 6.5-6.5 6.5 2.916 6.5 6.5-2.916 6.5-6.5 6.5Zm0-12c-3.033 0-5.5 2.467-5.5 5.5s2.467 5.5 5.5 5.5 5.5-2.467 5.5-5.5-2.467-5.5-5.5-5.5Zm80.582 16.569a12.46 12.46 0 0 1-8.839-3.655c-4.874-4.874-4.874-12.804 0-17.678 4.874-4.873 12.804-4.873 17.678 0 4.874 4.874 4.874 12.804 0 17.678a12.46 12.46 0 0 1-8.839 3.655Zm-8.132-20.625c-4.483 4.484-4.483 11.78 0 16.264 4.483 4.482 11.779 4.482 16.264 0 4.483-4.484 4.483-11.78 0-16.264-4.483-4.482-11.779-4.482-16.264 0Z" id="reuse-6"/><path d="M314.534 47.5c2.96 1.92 5.543 2.392 8.945 2.392 2.66 0 5.321-.586 7.773-1.756l24.428 24.428 8.485-8.485L347.586 47.5h61.098a4 4 0 0 0 4-4v-22a4 4 0 0 0-4-4h-74.418c-3.183-2.383-6.966-3.594-10.759-3.594s-7.576 1.211-10.76 3.594h-16.063a4 4 0 0 0-4 4v22a4 4 0 0 0 4 4h17.85Zm-2.339-1h-15.511c-1.654 0-3-1.346-3-3v-22c0-1.654 1.346-3 3-3h14.846c-.251.224-.51.437-.751.678-7.029 7.029-7.029 18.426 0 25.456.825.825 2.417 1.866 2.417 1.866h-1Zm50.556 17.579-7.071 7.071-23.721-23.721-.5-.5-.638.304a17.154 17.154 0 0 1-7.343 1.658 16.845 16.845 0 0 1-11.993-4.966c-3.211-3.211-4.979-7.48-4.979-12.021s1.768-8.81 4.979-12.021c3.211-3.211 7.48-4.979 12.021-4.979s8.81 1.768 12.021 4.979c5.075 5.075 6.404 12.845 3.307 19.336l-.304.638.5.5 23.721 23.721ZM411.684 43.5c0 1.654-1.346 3-3 3h-62.098l-6.849-6.849c3.191-6.689 2.037-14.934-3.503-20.473-.241-.241-.499-.454-.75-.678h73.2c1.654 0 3 1.346 3 3v22Zm195.5 3c-3.584 0-6.5-2.916-6.5-6.5s2.916-6.5 6.5-6.5 6.5 2.916 6.5 6.5-2.916 6.5-6.5 6.5Zm0-12c-3.032 0-5.5 2.467-5.5 5.5s2.468 5.5 5.5 5.5 5.5-2.467 5.5-5.5-2.468-5.5-5.5-5.5Zm29 41c-3.584 0-6.5-2.916-6.5-6.5s2.916-6.5 6.5-6.5 6.5 2.916 6.5 6.5-2.916 6.5-6.5 6.5Zm0-12c-3.032 0-5.5 2.467-5.5 5.5s2.468 5.5 5.5 5.5 5.5-2.467 5.5-5.5-2.468-5.5-5.5-5.5Zm56.5 12c-3.584 0-6.5-2.916-6.5-6.5s2.916-6.5 6.5-6.5 6.5 2.916 6.5 6.5-2.916 6.5-6.5 6.5Zm0-12c-3.032 0-5.5 2.467-5.5 5.5s2.468 5.5 5.5 5.5 5.5-2.467 5.5-5.5-2.468-5.5-5.5-5.5Zm39.75-8.5h-25V36h25v19Zm-24-1h23V37h-23v17Z" id="reuse-7"/></defs><defs><linearGradient id="b" x1="23.684" y1="41" x2="849.684" y2="41" gradientUnits="userSpaceOnUse"><stop offset="0" stop-color="#33b2e8"/><stop offset="1" stop-color="#ffdd57"/></linearGradient><style>.d{fill:url(#b)}.f{fill:none;stroke:#00c79b;stroke-miterlimit:10}</style></defs><g id="a"><use xlink:href="#reuse-0"/><use xlink:href="#reuse-1"/><use xlink:href="#reuse-2"/><use xlink:href="#reuse-3"/><use xlink:href="#reuse-4"/><use xlink:href="#reuse-5"/><use xlink:href="#reuse-6"/><use xlink:href="#reuse-7"/><use class="d" xlink:href="#reuse-0"/><use class="d" xlink:href="#reuse-1"/><use class="d" xlink:href="#reuse-2"/><use class="d" xlink:href="#reuse-3"/><use class="d" xlink:href="#reuse-4"/><use class="d" xlink:href="#reuse-5"/><use class="d" xlink:href="#reuse-6"/><use class="d" xlink:href="#reuse-7"/></g><g id="c"><path d="m76.826 22.705-.707-.707L45.71 52.407A6.461 6.461 0 0 0 41.684 51a6.473 6.473 0 0 0-4.224 1.569L25.037 40.146l-.707.707 12.423 12.423a6.464 6.464 0 0 0-1.569 4.224c0 3.584 2.916 6.5 6.5 6.5s6.5-2.916 6.5-6.5a6.465 6.465 0 0 0-1.741-4.412l30.383-30.383ZM41.684 52c1.245 0 2.39.42 3.313 1.12l-3.493 3.493-3.337-3.337A5.472 5.472 0 0 1 41.684 52Zm5.5 5.5c0 3.033-2.467 5.5-5.5 5.5s-5.5-2.467-5.5-5.5c0-1.337.48-2.563 1.276-3.517l4.044 4.044 4.233-4.233a5.472 5.472 0 0 1 1.448 3.706Z" fill="#00c79b"/><circle class="f" cx="41.684" cy="57.5" r="6"/><path class="f" d="M76.472 22.351 41.504 57.32 24.684 40.5"/></g></svg>