<?xml version="1.0" encoding="utf-8"?>
<!-- Generator: Adobe Illustrator 23.0.3, SVG Export Plug-In . SVG Version: 6.00 Build 0)  -->
<svg version="1.1" xmlns="http://www.w3.org/2000/svg" xmlns:xlink="http://www.w3.org/1999/xlink" x="0px" y="0px"
	 viewBox="0 0 1280 395" style="enable-background:new 0 0 1280 395;" xml:space="preserve">
<style type="text/css">
	.st0{fill:#005281;stroke:#005281;stroke-width:0.25;stroke-miterlimit:10;}
	.st1{fill:#0483A0;stroke:#0483A0;stroke-width:0.25;stroke-miterlimit:10;}
	.st2{fill:#0496AD;stroke:#0496AD;stroke-width:0.25;stroke-miterlimit:10;}
	.st3{fill:#06888E;stroke:#06888E;stroke-width:0.25;stroke-miterlimit:10;}
	.st4{fill:#08ABB2;stroke:#08ABB2;stroke-width:0.25;stroke-miterlimit:10;}
	.st5{fill:#08B4B6;stroke:#08B4B6;stroke-width:0.25;stroke-miterlimit:10;}
	.st6{fill:#0FC0B8;stroke:#0FC0B8;stroke-width:0.25;stroke-miterlimit:10;}
	.st7{fill:#013C66;stroke:#013C66;stroke-width:0.25;stroke-miterlimit:10;}
	.st8{fill:#003350;}
</style>
<g id="Ebene_1">
</g>
<g id="Ebene_2">
	<path class="st0" d="M854,384C712,69,399,0,399,0H20c0,0,323,33,677,384c3.8,3.7,7.4,7.4,10.8,11h150.8
		C857.2,391.4,855.7,387.8,854,384z"/>
	<path class="st1" d="M565,0H399c0,0,102.1,22.5,216.1,100.5C594.9,39.5,565,0,565,0z"/>
	<path class="st2" d="M781,0H565c0,0,29.9,39.5,50.1,100.5c-0.2-0.2-0.5-0.3-0.7-0.5c31.4,21.4,63.8,47.1,95.2,77.7c0,0,0,0,0,0
		c31.3-52.1,65.1-99.3,89.7-132C788.5,17,781,0,781,0z"/>
	<g>
		<g>
			<path class="st3" d="M835,0h-54c0,0,7.5,17,18.2,45.7C820.6,17.4,835,0,835,0z"/>
		</g>
	</g>
	<path class="st4" d="M790.9,273.1C811.2,141.1,874,0,874,0h-39c0,0-67,80.5-125.4,177.7C737.9,205.3,765.5,237,790.9,273.1z"/>
	<path class="st5" d="M790.9,273.1C814.1,306.2,835.5,343,854,384c1.7,3.8,3.2,7.4,4.6,11h26.8c0.5-3.6,1-7.2,1.6-11
		C935.6,71.3,1023.3,5.8,1031.4,0.4L874,0C874,0,811.2,141.1,790.9,273.1z"/>
	<path class="st6" d="M1280,395V0h-248c0,0-94,56-145,384c-0.6,3.8-1.1,7.4-1.6,11H1280z"/>
	<g>
		<path class="st7" d="M697,384C343,33,20,0,20,0H0v70c0,0,417,129,611,314c4,3.8,7.6,7.5,10.7,11h86.1
			C704.4,391.4,700.8,387.7,697,384z"/>
	</g>
	<g>
		<path class="st8" d="M0.9,395.1l-1-325.3L0,69.9c1,0.3,105.7,32.9,232.8,87.6c74.6,32.2,142.2,65.6,201,99.3
			c73.4,42.2,133.1,84.9,177.3,127.1c3.9,3.7,7.5,7.4,10.7,11l0.2,0.2H0.9z"/>
		<path class="st8" d="M0,70c0,0,417,129,611,314c4,3.8,7.6,7.5,10.7,11H1L0,70 M-0.3,69.7l0,0.3l1,325l0,0.2H1h620.7h0.6l-0.4-0.4
			c-3.2-3.6-6.8-7.3-10.7-11c-44.3-42.2-103.9-85-177.4-127.1c-58.7-33.7-126.3-67.1-201-99.3C105.8,102.6,1.1,70.1,0.1,69.8
			L-0.3,69.7L-0.3,69.7z"/>
	</g>
</g>
</svg>
