<?xml version="1.0" encoding="utf-8"?>
<!-- Generator: Adobe Illustrator 25.3.0, SVG Export Plug-In . SVG Version: 6.00 Build 0)  -->
<svg version="1.1" id="Layer_1" xmlns="http://www.w3.org/2000/svg" x="0px" y="0px"
     viewBox="0 0 64 84.7" style="enable-background:new 0 0 64 84.7;" xml:space="preserve">
<style type="text/css">
	.st0{fill:#F18A00;}
	.st1{fill:#FFB600;}
</style>
<g>
	<g>
		<path class="st0" d="M64,28.3V17.4l-1.1-1.4C50.9,1.9,33.2,0.1,32.4,0L32,0l-0.4,0c-0.7,0.1-18.5,1.9-30.4,16L0,17.4v25.1h58.9
			l-4.7,3.8V49c0,7.3-6.3,13.9-11.6,18.1c-2,1.6-10.7,7.4-10.7,7.4s-8.7-5.9-10.7-7.4C16,62.8,9.7,56.9,9.7,50.4l2.3-3.3H0v3.3
			c0,19.8,28.8,32.8,30,33.4l2,0.9l2-0.9c1.2-0.6,30-13.9,30-34.9V32.9H5.5l4.2-3.2v-8.6C18,12.2,29.6,10.1,32,9.8
			c2.4,0.3,13.9,2.3,22.3,11.3v7.3H64z"/>
		<g>
			<path class="st1" d="M54.3,49c0,7.3-6.3,13.9-11.6,18.1c-2,1.6-10.7,7.4-10.7,7.4h0v10.3h0l2-0.9c1.2-0.6,30-13.9,30-34.9V32.9
				H32v9.7h26.9l-4.7,3.8V49z"/>
			<path class="st1" d="M32.4,0L32,0h0v9.8c0,0,0,0,0,0c2.4,0.3,13.9,2.3,22.3,11.3v7.3H64V17.4l-1.1-1.4C50.9,1.9,33.2,0.1,32.4,0z
				"/>
		</g>
	</g>
	<g>
		<path class="st0" d="M57.4,80.2c-0.6,0-1.2-0.5-1.2-1.2c0-0.6,0.5-1.2,1.2-1.2s1.2,0.5,1.2,1.2C58.6,79.7,58.1,80.2,57.4,80.2z
			 M57.4,78.1c-0.5,0-0.9,0.4-0.9,0.9c0,0.5,0.4,0.9,0.9,0.9s1-0.4,1-0.9C58.4,78.5,57.9,78.1,57.4,78.1z M58,79.7h-0.3c0,0,0,0,0,0
			c-0.1-0.2-0.2-0.5-0.2-0.5h-0.1v0.5c0,0,0,0,0,0h-0.3c0,0,0,0,0,0v-1.2c0-0.1,0-0.1,0.1-0.1c0.1,0,0.3,0,0.4,0
			c0.4,0,0.6,0.1,0.6,0.5v0c0,0.2-0.1,0.3-0.2,0.4L58,79.7C58,79.6,58,79.6,58,79.7C58,79.7,58,79.7,58,79.7z M57.6,78.7
			c0-0.1-0.1-0.1-0.2-0.1h-0.2v0.3h0.2C57.5,78.9,57.6,78.9,57.6,78.7L57.6,78.7z"/>
	</g>
</g>
</svg>
