<svg id="a" xmlns="http://www.w3.org/2000/svg" xmlns:xlink="http://www.w3.org/1999/xlink" viewBox="0 0 888 82"><defs><path d="M55.684 24c1.654 0 3 1.346 3 3v28c0 1.654-1.346 3-3 3h-28c-1.654 0-3-1.346-3-3V27c0-1.654 1.346-3 3-3h28m0-1h-28a4 4 0 0 0-4 4v28a4 4 0 0 0 4 4h28a4 4 0 0 0 4-4V27a4 4 0 0 0-4-4Z" id="reuse-0"/><path d="M553.365 12.3h-24.707V20h1v-6.7h23.293l11.707 11.707V60.3h-5.9v1h6.9V24.593L553.365 12.3z" id="reuse-1"/><path d="M565.158 25.3h-12.5V12.8h1v11.5h11.5v1z" id="reuse-2"/><path d="M558.758 32.5h-12.5V20h1v11.5h11.5v1z" id="reuse-3"/><path d="M854.425 14c1.654 0 3 1.346 3 3v40c0 1.654-1.346 3-3 3h-88c-1.654 0-3-1.346-3-3V17c0-1.654 1.346-3 3-3h88m0-1h-88a4 4 0 0 0-4 4v40a4 4 0 0 0 4 4h88a4 4 0 0 0 4-4V17a4 4 0 0 0-4-4Z" id="reuse-4"/><path d="M827.425 61v7h-34v-7h34m1-1h-36v9h36v-9Z" id="reuse-5"/><path d="M839.425 69v4h-58v-4h58m1-1h-60v6h60v-6Z" id="reuse-6"/><path d="m777.6 48.39-.627-.78L791.43 36l-14.457-11.61.627-.78L793.028 36 777.6 48.39z" id="reuse-7"/><path d="M792.257 48h24v1h-24z" id="reuse-8"/><path d="M523.934 58h-3v-2.35a3.5 3.5 0 0 1-2-3.15c0-1.93 1.57-3.5 3.5-3.5s3.5 1.57 3.5 3.5a3.5 3.5 0 0 1-2 3.15V58Zm-2-1h1v-2.036l.332-.119a2.5 2.5 0 0 0 1.668-2.345c0-1.378-1.121-2.5-2.5-2.5s-2.5 1.122-2.5 2.5a2.5 2.5 0 0 0 1.668 2.345l.332.119V57Zm154.981-20a3.479 3.479 0 0 1-2.475-1.025l-9.657-9.657A4.469 4.469 0 0 0 661.601 25h-18.344a4.505 4.505 0 0 0-4.5 4.5v2.175l.927-.309.073.024V29.5c0-1.93 1.57-3.5 3.5-3.5h18.344c.935 0 1.813.364 2.475 1.025l9.657 9.657A4.469 4.469 0 0 0 676.915 38h33.843v35h-71v-5.669l-.073.036s-.352-.167-.927-.479v7.113h73V37h-34.843Zm-456.03-5.75c-2.531 0-5.443-1.848-8.525-3.805-3.249-2.062-6.609-4.195-9.6-4.195-3.085 0-7.959 1.671-12.26 3.146-4.78 1.64-7.321 2.467-8.351 1.92-.258-.138-1.319-.473-2.662-.896a231.326 231.326 0 0 1-4.463-1.446l.319-.974c1.713.578 3.238 1.085 4.444 1.466 1.683.531 2.507.794 2.832.967.693.369 4.499-.936 7.556-1.983 4.374-1.5 9.332-3.2 12.584-3.2 3.282 0 6.766 2.212 10.136 4.351 2.956 1.876 5.749 3.649 7.989 3.649 1.079 0 4.414-.534 14.173-3.076l.252.968c-7.917 2.062-12.771 3.108-14.425 3.108Zm-39.064 21.206c-1.913-.362-4.084-.79-6.536-1.291l-.2.979c2.366.483 4.471.899 6.339 1.254l.212-.524c.056-.135.119-.276.186-.419Zm53.489-3.572-.252-.968-6.1 1.591.726.622c.322.277.717 1.366.627 2.51-.037.464-.191 1.301-.814 1.685-1.072.66-2.095.508-2.917.385a5.903 5.903 0 0 0-.82-.084h-.883l.455.757c1.238 2.063 1.143 3.696-.3 5.139-1.213 1.213-2.465.684-3.568.216-.345-.146-.672-.285-.97-.351l-.968-.215.403.906c.351.789.962 3.235-.761 4.097-.743.269-5.178-1.668-9.381-3.541.287.435.553.923.761 1.431 4.823 2.133 7.288 3.118 8.493 3.118.235 0 .422-.038.57-.111 1.755-.877 1.937-2.821 1.577-4.366 1.184.5 2.916 1.16 4.553-.478 1.559-1.559 1.862-3.405.907-5.499.872.124 2.101.231 3.377-.554.741-.456 1.198-1.329 1.287-2.458.075-.957-.116-1.963-.471-2.667l4.473-1.167Z" id="reuse-9"/><path d="M204.55 32.218c-1.009-.721-2.391-.66-3.361.147-2.34 1.951-7.032 5.904-8.033 6.906-1.645 1.646-2.956 2.696-4.836 1.211-1.22-.963-1.518-1.874-1.553-2.468-.039-.654.218-1.158.438-1.38.775-.646 12.807-12.429 13.908-13.531L200 23c-1.191 1.191-12.719 12.269-13.469 12.896-.526.526-.812 1.34-.762 2.176.046.799.419 2.001 1.931 3.195 2.723 2.149 4.793.081 6.164-1.289.976-.976 5.638-4.904 7.967-6.844.62-.517 1.5-.559 2.152-.094l25.625 17.125.556-.831-25.612-17.116Z" id="reuse-10"/><path d="M225.759 55.75a.492.492 0 0 1-.259-.073l-14.375-8.75a.5.5 0 1 1 .52-.854l14.375 8.75a.5.5 0 0 1-.261.927ZM194.15 68.253c-.338 0-.712-.045-1.129-.142-.872-.174-1.516-.625-1.899-1.338-1.135-2.109.422-5.937 1.352-8.224l.199-.492c.479-1.15 1.755-4.203 4.595-3.415.509.117.948.477 1.247 1.034.74 1.379.625 3.94-.288 6.374-.265.647-.453 1.364-.635 2.058-.514 1.958-1.088 4.146-3.443 4.146Zm-.553-9.813-.197.486c-.807 1.984-2.309 5.679-1.398 7.373.239.444.642.717 1.23.835 2.274.53 2.75-.831 3.393-3.28.19-.725.387-1.474.671-2.169.786-2.097.93-4.431.337-5.536-.164-.305-.364-.48-.612-.538-1.417-.395-2.436.454-3.425 2.828Z" id="reuse-11"/><path d="M200.275 69.753c-.338 0-.712-.045-1.129-.142-.872-.174-1.516-.625-1.899-1.338-1.135-2.109.422-5.937 1.352-8.224l.199-.492c.418-1.004 1.692-4.058 4.57-3.421.535.124.973.483 1.272 1.041.74 1.379.625 3.94-.288 6.374-.265.647-.453 1.364-.635 2.058-.514 1.958-1.088 4.146-3.443 4.146Zm-.553-9.813-.197.486c-.807 1.984-2.309 5.679-1.398 7.373.239.444.642.717 1.23.835 2.276.532 2.75-.83 3.393-3.28.19-.725.387-1.474.671-2.169.786-2.097.93-4.431.337-5.536-.164-.305-.364-.48-.612-.538-1.423-.315-2.478.557-3.425 2.828Zm-11.379 7.072c-.339 0-.701-.051-1.087-.154-.817-.218-1.426-.693-1.81-1.412-1.244-2.333.229-6.622 1.203-9.459l.265-.779c.416-1.166 1.679-4.711 4.579-4.07.523.159.915.512 1.203 1.058.807 1.53.724 4.575-.208 7.579-.272.759-.464 1.607-.649 2.428-.426 1.888-.828 3.671-2.108 4.446a2.632 2.632 0 0 1-1.387.365Zm-.486-11.472-.262.771c-.806 2.347-2.305 6.716-1.266 8.664.251.471.639.771 1.185.917.716.19 1.271.158 1.698-.1.917-.555 1.273-2.136 1.651-3.811.192-.851.39-1.73.677-2.526.824-2.659.942-5.525.272-6.794-.16-.302-.353-.49-.574-.558-1.369-.304-2.423.755-3.381 3.438Z" id="reuse-12"/><path d="M100.421 17v16.606l1 1V18h35v47h-35V51.576l-1-1V66h37V17h-37z" id="reuse-13"/><path d="M424.97 19.714c-3.584 0-6.5-2.916-6.5-6.5s2.916-6.5 6.5-6.5 6.5 2.916 6.5 6.5-2.916 6.5-6.5 6.5Zm0-12c-3.033 0-5.5 2.467-5.5 5.5s2.467 5.5 5.5 5.5 5.5-2.467 5.5-5.5-2.467-5.5-5.5-5.5Z" id="reuse-14"/><path d="M435.755 30h-21.571v-6.214a5.077 5.077 0 0 1 5.071-5.071h.623l.15.193c1.218 1.565 3.046 2.463 5.017 2.463s3.799-.897 5.017-2.463l.15-.193h.473a5.077 5.077 0 0 1 5.071 5.071V30Zm-20.571-1h19.571v-5.214a4.076 4.076 0 0 0-4.06-4.071c-1.405 1.691-3.451 2.656-5.65 2.656s-4.245-.965-5.65-2.656h-.139a4.075 4.075 0 0 0-4.071 4.071V29Zm35.786-9.286c-3.584 0-6.5-2.916-6.5-6.5s2.916-6.5 6.5-6.5 6.5 2.916 6.5 6.5-2.916 6.5-6.5 6.5Zm0-12c-3.032 0-5.5 2.467-5.5 5.5s2.468 5.5 5.5 5.5 5.5-2.467 5.5-5.5-2.468-5.5-5.5-5.5Z" id="reuse-15"/><path d="M461.755 30h-21.571v-6.214a5.077 5.077 0 0 1 5.071-5.071h.624l.149.193c1.217 1.565 3.045 2.462 5.017 2.462s3.799-.897 5.017-2.463l.15-.193h.472a5.077 5.077 0 0 1 5.071 5.071v6.214Zm-20.571-1h19.571v-5.214a4.076 4.076 0 0 0-4.06-4.071c-1.406 1.691-3.451 2.656-5.65 2.656s-4.245-.965-5.65-2.656h-.14a4.075 4.075 0 0 0-4.071 4.071V29Zm35.786-9.286c-3.584 0-6.5-2.916-6.5-6.5s2.916-6.5 6.5-6.5 6.5 2.916 6.5 6.5-2.916 6.5-6.5 6.5Zm0-12c-3.032 0-5.5 2.467-5.5 5.5s2.468 5.5 5.5 5.5 5.5-2.467 5.5-5.5-2.468-5.5-5.5-5.5Z" id="reuse-16"/><path d="M487.755 30h-21.571v-6.214a5.077 5.077 0 0 1 5.071-5.071h.624l.149.193c1.217 1.565 3.045 2.462 5.017 2.462s3.799-.897 5.017-2.463l.15-.193h.472a5.077 5.077 0 0 1 5.071 5.071v6.214Zm-20.571-1h19.571v-5.214a4.076 4.076 0 0 0-4.06-4.071c-1.406 1.691-3.451 2.656-5.65 2.656s-4.245-.965-5.65-2.656h-.14a4.075 4.075 0 0 0-4.071 4.071V29Zm-22.476 17.027h-11.524a5.506 5.506 0 0 1-5.5-5.5V29.321h-1v11.206c0 3.584 2.916 6.5 6.5 6.5h11.527a6.115 6.115 0 0 1-.027-.527c0-.16.012-.317.024-.473Z" id="reuse-17"/><path d="M476.47 29.321v11.206c0 3.033-2.468 5.5-5.5 5.5h-14.31c.012.157.024.313.024.473 0 .178-.011.353-.027.527h14.313c3.584 0 6.5-2.916 6.5-6.5V29.321h-1Zm-25.286 11.204V29.5h-1v11.025c.165-.014.331-.025.5-.025s.335.012.5.025Zm3.5 20.475c-1.93 0-3.5-1.57-3.5-3.5v-5.025c-.165.014-.331.025-.5.025s-.335-.012-.5-.025V57.5c0 1.93-1.57 3.5-3.5 3.5H340.165v1h106.519a4.506 4.506 0 0 0 4-2.439 4.504 4.504 0 0 0 4 2.439h56v-1h-56ZM114.773 38.573h-1.121v-1.189h-.027c-.52.902-1.322 1.354-2.406 1.354-.879 0-1.583-.313-2.109-.94s-.79-1.48-.79-2.56c0-1.158.292-2.085.875-2.782s1.36-1.046 2.331-1.046c.961 0 1.661.378 2.099 1.135h.027v-4.334h1.121v10.363Zm-1.121-3.165v-1.032c0-.565-.187-1.043-.561-1.436s-.848-.588-1.422-.588c-.684 0-1.221.25-1.613.752s-.588 1.194-.588 2.078c0 .807.188 1.443.564 1.911s.881.701 1.514.701c.625 0 1.131-.226 1.521-.677s.584-1.021.584-1.709Zm6.316 3.329c-1.035 0-1.86-.327-2.478-.981s-.926-1.521-.926-2.601c0-1.176.321-2.094.964-2.755s1.511-.991 2.604-.991c1.043 0 1.858.321 2.444.964s.878 1.534.878 2.673c0 1.117-.315 2.011-.947 2.683s-1.478 1.008-2.54 1.008Zm.082-6.385c-.72 0-1.29.245-1.709.735s-.629 1.166-.629 2.027c0 .83.212 1.483.636 1.962s.991.718 1.702.718c.725 0 1.282-.235 1.671-.704s.584-1.137.584-2.003c0-.875-.195-1.549-.584-2.023s-.947-.711-1.671-.711Zm9.967 5.899c-.538.324-1.176.485-1.914.485-.998 0-1.804-.325-2.417-.974s-.919-1.491-.919-2.526c0-1.153.331-2.079.991-2.779s1.542-1.049 2.646-1.049c.615 0 1.158.114 1.627.342v1.148c-.52-.365-1.076-.547-1.668-.547-.715 0-1.302.256-1.76.769s-.687 1.186-.687 2.02c0 .82.215 1.467.646 1.941s1.008.711 1.733.711c.611 0 1.185-.203 1.723-.608v1.066Zm-15.338 19.984-13.022-5.362 9.546-9.546 5.362 13.022-1.886 1.886Zm-11.255-5.716 11.02 4.537.942-.942-4.537-11.02-7.425 7.425Z" id="reuse-18"/><path d="M88.184 16.2c0-2.481-2.019-4.5-4.5-4.5h-38a4.505 4.505 0 0 0-4.5 4.5V23h1v-6.8c0-1.93 1.57-3.5 3.5-3.5h38c1.93 0 3.5 1.57 3.5 3.5v13.4h.74l.26-.26V16.201Z" id="reuse-19"/><path d="m88.184 29.34-.26.26h.26v-.26z" id="reuse-20"/><path d="M153.805 70.916c0 1.93-1.57 3.5-3.5 3.5h-27.384c-1.93 0-3.5-1.57-3.5-3.5V65.5h-1v5.416c0 2.481 2.019 4.5 4.5 4.5h27.384c2.481 0 4.5-2.019 4.5-4.5V31.481a5.98 5.98 0 0 1-1-.146v39.582ZM175.344 25h-14.185c.014.165.025.331.025.5s-.012.335-.025.5h14.025l.16-1Zm76.802 23.9h-16.961v-1h16.961c1.93 0 3.5-1.57 3.5-3.5v-8.9c0-2.481 2.019-4.5 4.5-4.5h9.539v1h-9.539c-1.93 0-3.5 1.57-3.5 3.5v8.9c0 2.481-2.019 4.5-4.5 4.5ZM601.709 66h-8.025c-1.93 0-3.5-1.57-3.5-3.5V28.699c0-2.481-2.019-4.5-4.5-4.5h-21v1h21c1.93 0 3.5 1.57 3.5 3.5V62.5c0 2.481 2.019 4.5 4.5 4.5h8.025c-.014-.165-.025-.331-.025-.5s.012-.335.025-.5Zm81.975-52.5h-71.969a4.505 4.505 0 0 0-4.5 4.5v42.524c.155-.012.31-.024.469-.024.179 0 .356.011.531.027V18c0-1.93 1.57-3.5 3.5-3.5h71.969c1.93 0 3.5 1.57 3.5 3.5v19.924h1V18c0-2.481-2.019-4.5-4.5-4.5Zm47.358 43.55h-19.784v-1h19.784c1.93 0 3.5-1.57 3.5-3.5V41.379c0-2.481 2.019-4.5 4.5-4.5h23.383v1h-23.383c-1.93 0-3.5 1.57-3.5 3.5V52.55c0 2.481-2.019 4.5-4.5 4.5ZM78.856 31.003l1.816-1.816-.707-.707-1.816 1.816a4.506 4.506 0 0 0 0 6.364l6.569 6.569.707-.707-6.569-6.569a3.504 3.504 0 0 1 0-4.95Zm222.119 10.831a12.46 12.46 0 0 1-8.839-3.655c-4.874-4.874-4.874-12.804 0-17.678 4.874-4.873 12.804-4.873 17.678 0 4.874 4.874 4.874 12.804 0 17.678a12.46 12.46 0 0 1-8.839 3.655Zm-8.132-20.625c-4.483 4.484-4.483 11.78 0 16.264 4.483 4.482 11.779 4.482 16.264 0 4.483-4.484 4.483-11.78 0-16.264-4.483-4.482-11.779-4.482-16.264 0Z" id="reuse-21"/><path d="M291.534 45.265c2.96 1.92 5.543 2.392 8.945 2.392 2.66 0 5.321-.586 7.773-1.756l24.428 24.428 8.485-8.485-16.579-16.579h61.098a4 4 0 0 0 4-4v-22a4 4 0 0 0-4-4h-74.418c-3.183-2.383-6.966-3.594-10.759-3.594s-7.576 1.211-10.76 3.594h-16.063a4 4 0 0 0-4 4v22a4 4 0 0 0 4 4h17.85Zm-2.339-1h-15.511c-1.654 0-3-1.346-3-3v-22c0-1.654 1.346-3 3-3h14.846c-.251.224-.51.437-.751.678-7.029 7.029-7.029 18.426 0 25.456.825.825 2.417 1.866 2.417 1.866h-1Zm50.556 17.579-7.071 7.071-23.721-23.721-.5-.5-.638.304a17.154 17.154 0 0 1-7.343 1.658 16.845 16.845 0 0 1-11.993-4.966c-3.211-3.211-4.979-7.48-4.979-12.021s1.768-8.81 4.979-12.021c3.211-3.211 7.48-4.979 12.021-4.979s8.81 1.768 12.021 4.979c5.075 5.075 6.404 12.845 3.307 19.336l-.304.638.5.5 23.721 23.721Zm48.933-20.579c0 1.654-1.346 3-3 3h-62.098l-6.849-6.849c3.191-6.689 2.037-14.934-3.503-20.473-.241-.241-.499-.454-.75-.678h73.2c1.654 0 3 1.346 3 3v22ZM102.541 53.403 82.978 33.84l9.192-9.192 19.563 19.563-9.192 9.192ZM84.392 33.84l18.149 18.149 7.778-7.778L92.17 26.062l-7.778 7.778ZM155.184 32c-3.584 0-6.5-2.916-6.5-6.5s2.916-6.5 6.5-6.5 6.5 2.916 6.5 6.5-2.916 6.5-6.5 6.5Zm0-12c-3.033 0-5.5 2.467-5.5 5.5s2.467 5.5 5.5 5.5 5.5-2.467 5.5-5.5-2.467-5.5-5.5-5.5Zm51.45 48.589c-1.843 0-2.779-.921-3.197-1.536-.969-1.422-.909-3.636.146-5.383 1.005-1.666 2.637-2.5 4.482-2.293 1.102.123 3.328 3.106 3.395 5.447.032 1.127-.411 3.103-3.742 3.668a6.528 6.528 0 0 1-1.084.096Zm.892-8.242c-1.263 0-2.372.655-3.088 1.84-.845 1.401-.919 3.211-.175 4.303.63.924 1.768 1.274 3.288 1.016 1.854-.314 2.832-1.122 2.906-2.399.119-2.064-1.999-4.572-2.515-4.737a3.663 3.663 0 0 0-.416-.023Zm-24.876 2.531c-.338 0-.712-.045-1.129-.142-.872-.174-1.516-.625-1.899-1.338-1.135-2.109.422-5.937 1.352-8.224l.199-.492c1.409-3.383 3.261-3.728 4.576-3.419.528.122.967.481 1.266 1.039.74 1.379.625 3.94-.288 6.374-.265.647-.453 1.364-.635 2.058-.514 1.958-1.088 4.146-3.443 4.146Zm-.553-9.813-.197.486c-.807 1.984-2.309 5.679-1.398 7.373.239.444.642.717 1.23.835 2.277.53 2.75-.83 3.393-3.28.19-.725.387-1.474.671-2.169.786-2.097.93-4.431.337-5.536-.164-.305-.364-.48-.612-.538-1.691-.397-2.795 1.318-3.425 2.828ZM450.684 53c-3.584 0-6.5-2.916-6.5-6.5s2.916-6.5 6.5-6.5 6.5 2.916 6.5 6.5-2.916 6.5-6.5 6.5Zm0-12c-3.032 0-5.5 2.467-5.5 5.5s2.468 5.5 5.5 5.5 5.5-2.467 5.5-5.5-2.468-5.5-5.5-5.5Zm96.28-21.5h-24.707v12.522c.142-.007.283-.022.427-.022.194 0 .383.017.573.029V20.5h23.293l11.707 11.707V67.5h-35V62h-1v6.5h37V31.793L546.964 19.5Z" id="reuse-22"/><path d="M535.184 62.5h-25v-19h25v19Zm-24-1h23v-17h-23v17Z" id="reuse-23"/><path d="M532.184 44h-1v-3c0-4.687-3.813-8.5-8.5-8.5s-8.5 3.813-8.5 8.5v3h-1v-3c0-5.238 4.262-9.5 9.5-9.5s9.5 4.262 9.5 9.5v3Zm75.5 29c-3.584 0-6.5-2.916-6.5-6.5s2.916-6.5 6.5-6.5 6.5 2.916 6.5 6.5-2.916 6.5-6.5 6.5Zm0-12c-3.032 0-5.5 2.467-5.5 5.5s2.468 5.5 5.5 5.5 5.5-2.467 5.5-5.5-2.468-5.5-5.5-5.5Zm32 6.919-.214-.101c-.501-.237-12.286-5.901-12.286-14.452v-18.36l12.5-4.167 12.5 4.167v18.36c0 8.551-11.785 14.215-12.286 14.452l-.214.101Zm-11.5-32.192v17.64c0 7.318 9.909 12.636 11.5 13.442 1.591-.806 11.5-6.124 11.5-13.442v-17.64l-11.5-3.833-11.5 3.833ZM219.946 60.879a.457.457 0 0 1-.231-.061l-12.859-7.461a.428.428 0 0 1-.155-.595.45.45 0 0 1 .609-.152l12.859 7.461a.428.428 0 0 1 .155.595.448.448 0 0 1-.378.213Z" id="reuse-24"/></defs><defs><linearGradient id="b" x1="23.684" y1="41.065" x2="858.425" y2="41.065" gradientUnits="userSpaceOnUse"><stop offset="0" stop-color="#33b2e8"/><stop offset="1" stop-color="#00d1df"/></linearGradient><linearGradient id="c" gradientTransform="rotate(45 98.886 37.021)" xlink:href="#b"/><linearGradient id="d" gradientTransform="rotate(45.001 95.35 40.557)" xlink:href="#b"/><style>.f{fill:url(#b)}</style></defs><use xlink:href="#reuse-0"/><use xlink:href="#reuse-1"/><use xlink:href="#reuse-2"/><use xlink:href="#reuse-3"/><use xlink:href="#reuse-4"/><use xlink:href="#reuse-5"/><use xlink:href="#reuse-6"/><use xlink:href="#reuse-7"/><use xlink:href="#reuse-8"/><use xlink:href="#reuse-9"/><use xlink:href="#reuse-10"/><use xlink:href="#reuse-11"/><use xlink:href="#reuse-12"/><use xlink:href="#reuse-13"/><use xlink:href="#reuse-14"/><use xlink:href="#reuse-15"/><use xlink:href="#reuse-16"/><use xlink:href="#reuse-17"/><use xlink:href="#reuse-18"/><path transform="rotate(-45 98.887 37.022)" d="M98.387 23.522h1v27h-1z"/><path transform="rotate(-45.001 95.351 40.557)" d="M94.852 27.057h1v27h-1z"/><use xlink:href="#reuse-19"/><use xlink:href="#reuse-20"/><use xlink:href="#reuse-21"/><use xlink:href="#reuse-22"/><use xlink:href="#reuse-23"/><use xlink:href="#reuse-24"/><use class="f" xlink:href="#reuse-0"/><use class="f" xlink:href="#reuse-1"/><use class="f" xlink:href="#reuse-2"/><use class="f" xlink:href="#reuse-3"/><use class="f" xlink:href="#reuse-4"/><use class="f" xlink:href="#reuse-5"/><use class="f" xlink:href="#reuse-6"/><use class="f" xlink:href="#reuse-7"/><use class="f" xlink:href="#reuse-8"/><use class="f" xlink:href="#reuse-9"/><use class="f" xlink:href="#reuse-10"/><use class="f" xlink:href="#reuse-11"/><use class="f" xlink:href="#reuse-12"/><use class="f" xlink:href="#reuse-13"/><use class="f" xlink:href="#reuse-14"/><use class="f" xlink:href="#reuse-15"/><use class="f" xlink:href="#reuse-16"/><use class="f" xlink:href="#reuse-17"/><use class="f" xlink:href="#reuse-18"/><path transform="rotate(-45 98.887 37.022)" fill="url(#c)" d="M98.387 23.522h1v27h-1z"/><path transform="rotate(-45.001 95.351 40.557)" fill="url(#d)" d="M94.852 27.057h1v27h-1z"/><use class="f" xlink:href="#reuse-19"/><use class="f" xlink:href="#reuse-20"/><use class="f" xlink:href="#reuse-21"/><use class="f" xlink:href="#reuse-22"/><use class="f" xlink:href="#reuse-23"/><use class="f" xlink:href="#reuse-24"/></svg>