<svg xmlns="http://www.w3.org/2000/svg" xmlns:xlink="http://www.w3.org/1999/xlink" viewBox="0 0 888 82"><defs><path d="M55.684 27.765c1.654 0 3 1.346 3 3v28c0 1.654-1.346 3-3 3h-28c-1.654 0-3-1.346-3-3v-28c0-1.654 1.346-3 3-3h28m0-1h-28a4 4 0 0 0-4 4v28a4 4 0 0 0 4 4h28a4 4 0 0 0 4-4v-28a4 4 0 0 0-4-4Zm43.805 46.95-.656-.363a9.796 9.796 0 0 0 1.095-3.391c8.426-25.488-6.428-52.63-16.531-64.66l-.178-.211.288-.449.291-.008c1.961.402 3.965.974 5.956 1.699l.112.041.068.098c4.353 6.28 25.271 39.036 9.556 67.244ZM84.596 5.575c9.956 12.232 23.79 38.192 16.567 62.924 10.779-26.474-7.584-55.426-11.778-61.503a42.098 42.098 0 0 0-4.789-1.421Z" id="reuse-0"/><path d="m100.434 72.213-.643-.386c14.26-24.445.403-52.325-6.216-63.177l-.65-1.066 1.13.531c1.956.92 3.899 1.98 5.778 3.152l.09.057.047.095c6.296 12.683 14.999 37.01 2.538 57.439l-2.074 3.354ZM94.865 9.342c6.141 10.384 16.892 33.121 9.236 54.945 8.848-19.125 1.041-40.731-4.756-52.439a55.606 55.606 0 0 0-4.48-2.506Z" id="reuse-1"/><path d="m103.996 66.455-.642-.388c3.114-5.337 12.59-21.58-.189-51.69l-.542-1.275 1.111.828a56.121 56.121 0 0 1 4.968 4.165l.071.067.029.094c5.616 17.979 4.723 32.648-2.732 44.848l-2.075 3.353Zm.399-51.076c8.066 19.731 6.597 33.462 3.794 42.01 4.685-10.879 4.65-23.646-.073-38.817a54.942 54.942 0 0 0-3.721-3.193Z" id="reuse-2"/><path d="m107.856 60.216-.643-.387c2.817-4.825 9.415-16.125 4.536-37.535l-.342-1.503.995 1.177a39.387 39.387 0 0 1 3.492 4.799l.054.162c.802 8.938.628 18.75-6.014 29.929l-2.078 3.358Zm4.959-36.551c2.493 12.025 1.362 20.792-.572 26.968 3.594-8.588 3.604-16.354 2.965-23.549a37.313 37.313 0 0 0-2.393-3.419Z" id="reuse-3"/><path d="m111.422 54.46-.643-.386.005-.009c2.062-3.54 6.352-10.905 6.259-23.601l-.013-1.788.73 1.631c.239.533.458 1.078.669 1.666.394 1.095.69 2.17.879 3.196l.013.068-.013.068c-1.033 5.645-2.266 9.833-5.812 15.798l-2.075 3.356Zm6.352-22.089c-.145 5.319-1.053 9.649-2.188 13.112 1.506-3.416 2.286-6.507 2.972-10.244a19.644 19.644 0 0 0-.785-2.869Zm-3.002 45.004h-.756l.085-.45c6.165-30.307 41.833-41.445 48.92-43.37l.115-.031.112.041a41.532 41.532 0 0 1 5.447 2.445l.222.12-.059.531-.285.119c-14.948 2.602-42.818 13.395-52.456 37.339-.623.989-1.042 1.967-1.278 2.966l-.068.289Zm48.331-43.064c-6.856 1.877-38.287 11.804-46.944 37.811 10.099-22.538 36.373-33.056 51.319-35.903a41.268 41.268 0 0 0-4.375-1.907Z" id="reuse-4"/><path d="m115.027 75.632-.74-.119.559-3.757c3.553-22.793 25.139-35.333 37.69-40.779l.098-.042.105.015c2.129.308 4.223.734 6.225 1.267l1.209.322-1.187.396c-11.643 3.887-39.232 15.827-43.959 42.698Zm37.71-43.925c-11.519 5.013-30.616 16.018-36.116 35.432 8.034-20.653 29.957-30.67 40.93-34.506a54.51 54.51 0 0 0-4.813-.925Z" id="reuse-5"/><path d="m115.985 69.184-.74-.12.561-3.758c2.113-13.622 10.602-24.994 25.955-34.767l.083-.053.098-.005a55.548 55.548 0 0 1 6.259.013l1.384.083-1.237.626c-28.187 14.265-31.329 32.116-32.361 37.981Zm26.095-37.959c-12.825 8.182-20.781 17.479-24.161 28.28 3.32-8.012 10.825-18.897 28.837-28.327a55.036 55.036 0 0 0-4.676.046Z" id="reuse-6"/><path d="m117.029 62.186-.741-.119.563-3.758c2.079-12.383 8.068-19.72 14.231-25.805l.146-.089a38.173 38.173 0 0 1 5.567-1.372l1.525-.261-1.236.931c-16.932 12.745-19.121 25.169-20.055 30.474ZM131.548 33.1c-4.902 4.847-9.683 10.503-12.405 18.921 2.452-5.701 7.074-12.749 16.237-19.944a36.285 36.285 0 0 0-3.832 1.023Z" id="reuse-7"/><path d="m117.994 55.726-.742-.114.563-3.756c1.101-6.592 2.806-10.448 5.567-15.261l.087-.103a19.49 19.49 0 0 1 2.645-1.813c.5-.29 1.013-.564 1.527-.813l1.624-.789-1.176 1.37c-7.983 9.301-9.41 17.391-10.095 21.279Zm6.004-18.698c-1.772 3.095-3.101 5.792-4.109 9.108 1.317-3.178 3.309-6.814 6.401-10.692a18.667 18.667 0 0 0-2.292 1.583Zm129.584 1.743h-15.383c-3.103 0-5.628-2.525-5.628-5.628s2.525-5.628 5.628-5.628h15.383c3.103 0 5.628 2.525 5.628 5.628s-2.525 5.628-5.628 5.628Zm-15.383-10.256c-2.552 0-4.628 2.076-4.628 4.628s2.076 4.628 4.628 4.628h15.383c2.552 0 4.628-2.076 4.628-4.628s-2.076-4.628-4.628-4.628h-15.383Z" id="reuse-8"/><path d="M257.001 49.027h-17.093c-3.103 0-5.628-2.525-5.628-5.628s2.525-5.627 5.628-5.627h17.093c3.103 0 5.627 2.524 5.627 5.627s-2.524 5.628-5.627 5.628Zm-17.093-10.255c-2.552 0-4.628 2.076-4.628 4.627s2.076 4.628 4.628 4.628h17.093c2.552 0 4.627-2.076 4.627-4.628s-2.076-4.627-4.627-4.627h-17.093Z" id="reuse-9"/><path d="M255.291 59.283h-15.383c-3.103 0-5.628-2.525-5.628-5.628s2.525-5.628 5.628-5.628h15.383c3.103 0 5.628 2.525 5.628 5.628s-2.525 5.628-5.628 5.628Zm-15.383-10.256c-2.552 0-4.628 2.076-4.628 4.628s2.076 4.628 4.628 4.628h15.383c2.552 0 4.628-2.076 4.628-4.628s-2.076-4.628-4.628-4.628h-15.383Z" id="reuse-10"/><path d="M251.018 69.538h-11.11c-3.103 0-5.628-2.524-5.628-5.627s2.525-5.628 5.628-5.628h11.11c3.103 0 5.628 2.524 5.628 5.627s-2.525 5.628-5.628 5.628Zm-11.11-10.255c-2.552 0-4.628 2.076-4.628 4.627s2.076 4.628 4.628 4.628h11.11c2.552 0 4.628-2.076 4.628-4.627s-2.076-4.628-4.628-4.628h-11.11Zm-13.177-19.788-.738-.675c.071-.078 7.141-7.839 8.319-10.98 2.438-6.499 1.126-11.253.072-15.073l-.086-.312c-.45-1.634-2.256-3.079-3.671-2.988-1.42.096-1.922 1.642-2.094 2.922-.396 2.958-1.277 8.288-2.723 10.752-1.078 1.838-3.268 3.396-5.588 5.047-3.014 2.145-6.43 4.575-8.064 8.085-.449.967-2.471.829-3.32.723l-6.709.004v-1h6.771c1.072.126 2.19.048 2.358-.159 1.741-3.74 5.271-6.252 8.386-8.468 2.229-1.587 4.336-3.085 5.305-4.738 1.356-2.313 2.208-7.496 2.594-10.379.422-3.146 2.072-3.723 3.018-3.787 1.924-.125 4.122 1.608 4.703 3.721l.086.311c1.035 3.751 2.452 8.888-.1 15.691-1.246 3.321-8.221 10.979-8.517 11.303ZM99.684 74.032h-21a6.508 6.508 0 0 1-6.5-6.5V50.311c0-3.033-2.467-5.5-5.5-5.5h-8v-1h8c3.584 0 6.5 2.916 6.5 6.5v17.221c0 3.033 2.467 5.5 5.5 5.5h21v1Z" id="reuse-11"/><path d="M168.334 36h34v1h-34z" id="reuse-12"/><path d="m773.141 44.202 14.672-6.142c.272-.41.533-.798.789-1.175l-.169-.169-17.054 7.139 7.86 7.86c.17-.282.352-.575.542-.873l-6.64-6.64Zm21.58 21.58-6.653-6.653c-.299.189-.593.371-.875.54l7.862 7.862 7.29-16.902-.32-.32c-.293.199-.578.393-.89.601l-6.413 14.872ZM303.619 21.714c-3.584 0-6.5-2.916-6.5-6.5s2.916-6.5 6.5-6.5 6.5 2.916 6.5 6.5-2.916 6.5-6.5 6.5Zm0-12c-3.033 0-5.5 2.467-5.5 5.5s2.467 5.5 5.5 5.5 5.5-2.467 5.5-5.5-2.467-5.5-5.5-5.5Z" id="reuse-13"/><path d="M314.405 32h-21.571v-6.214a5.077 5.077 0 0 1 5.071-5.071h.623l.15.193c1.217 1.565 3.045 2.463 5.017 2.463s3.799-.897 5.017-2.463l.15-.193h.473a5.077 5.077 0 0 1 5.071 5.071V32Zm-20.571-1h19.571v-5.214a4.076 4.076 0 0 0-4.06-4.071c-1.406 1.691-3.451 2.656-5.65 2.656s-4.245-.965-5.65-2.656h-.139a4.075 4.075 0 0 0-4.071 4.071V31Zm35.785-9.286c-3.584 0-6.5-2.916-6.5-6.5s2.916-6.5 6.5-6.5 6.5 2.916 6.5 6.5-2.916 6.5-6.5 6.5Zm0-12c-3.033 0-5.5 2.467-5.5 5.5s2.467 5.5 5.5 5.5 5.5-2.467 5.5-5.5-2.467-5.5-5.5-5.5Z" id="reuse-14"/><path d="M340.405 32h-21.571v-6.214a5.077 5.077 0 0 1 5.071-5.071h.623l.15.193c1.217 1.565 3.045 2.463 5.017 2.463s3.799-.897 5.017-2.463l.15-.193h.473a5.077 5.077 0 0 1 5.071 5.071V32Zm-20.571-1h19.571v-5.214a4.076 4.076 0 0 0-4.06-4.071c-1.406 1.691-3.451 2.656-5.65 2.656s-4.245-.965-5.65-2.656h-.139a4.075 4.075 0 0 0-4.071 4.071V31Zm35.771-9.284a6.45 6.45 0 0 1-3.776-1.221 6.456 6.456 0 0 1-2.624-4.227c-.282-1.713.121-3.434 1.133-4.844s2.513-2.342 4.227-2.624a6.443 6.443 0 0 1 4.844 1.133 6.46 6.46 0 0 1 2.624 4.227 6.456 6.456 0 0 1-1.133 4.844 6.46 6.46 0 0 1-4.227 2.624 6.539 6.539 0 0 1-1.068.088Zm.026-12.003c-.3 0-.602.024-.904.074a5.462 5.462 0 0 0-3.576 2.22 5.463 5.463 0 0 0-.959 4.099c.239 1.45 1.027 2.72 2.221 3.577s2.65 1.196 4.099.959a5.466 5.466 0 0 0 3.577-2.22 5.468 5.468 0 0 0 .959-4.099 5.466 5.466 0 0 0-2.22-3.577 5.462 5.462 0 0 0-3.195-1.033Z" id="reuse-15"/><path d="M366.405 32h-21.571v-6.214a5.077 5.077 0 0 1 5.071-5.071h.623l.15.193c1.217 1.565 3.045 2.463 5.017 2.463s3.799-.897 5.017-2.463l.15-.193h.473a5.077 5.077 0 0 1 5.071 5.071V32Zm-20.571-1h19.571v-5.214a4.076 4.076 0 0 0-4.06-4.071c-1.406 1.691-3.451 2.656-5.65 2.656s-4.245-.965-5.65-2.656h-.139a4.075 4.075 0 0 0-4.071 4.071V31Zm-22.126 17.027h-13.875a5.506 5.506 0 0 1-5.5-5.5V31.321h-1v11.206c0 3.584 2.916 6.5 6.5 6.5h13.877a6.115 6.115 0 0 1-.027-.527c0-.16.012-.317.024-.473Z" id="reuse-16"/><path d="M355.119 31.321v11.206c0 3.033-2.467 5.5-5.5 5.5H335.66c.012.157.024.313.024.473 0 .178-.011.353-.027.527h13.962c3.584 0 6.5-2.916 6.5-6.5V31.321h-1ZM217.587 66.737c3.321 1.626 5.721 2.801 22.321 2.801v-1c-16.368 0-18.681-1.132-21.881-2.699a41.874 41.874 0 0 0-1.784-.833 5.895 5.895 0 0 1-.252.978c.58.256 1.094.507 1.596.752Z" id="reuse-17"/><path d="M329.26 54.479V71c0 3.033-2.467 5.5-5.5 5.5H174.177a5.506 5.506 0 0 1-5.5-5.5v-1.089c0-3.033 2.467-5.5 5.5-5.5h27.95c.016 0 .921.003 2.229.029-.011-.146-.022-.291-.022-.439 0-.189.011-.376.028-.561a146.695 146.695 0 0 0-2.234-.029h-27.951a6.508 6.508 0 0 0-6.5 6.5V71c0 3.584 2.916 6.5 6.5 6.5H323.76c3.584 0 6.5-2.916 6.5-6.5V54.471c-.19.018-.381.029-.576.029-.143 0-.284-.012-.424-.021Zm1-11.95V31.5h-1v11.021c.141-.01.281-.021.424-.021.194 0 .386.011.576.029Zm273.763-27.721a4.97 4.97 0 0 1 3.536 1.464l33.301 33.301-24.042 24.042-33.301-33.301a5.006 5.006 0 0 1 0-7.071l16.971-16.971a4.968 4.968 0 0 1 3.536-1.464m0-1a5.984 5.984 0 0 0-4.243 1.757L582.81 32.536a6 6 0 0 0 0 8.485l34.008 34.008 25.456-25.456-34.008-34.008a5.98 5.98 0 0 0-4.243-1.757Z" id="reuse-18"/><path d="m592.826 57.27-15.744-15.744a6.508 6.508 0 0 1 0-9.192l4.869-4.869.707.707-4.869 4.869a5.505 5.505 0 0 0 0 7.778l15.744 15.744-.707.707Z" id="reuse-19"/><path d="M781.696 61.052c-.668 0-1.296-.26-1.768-.732l-1.415-1.414a2.505 2.505 0 0 1 0-3.536l1.769-1.768 4.949 4.95-1.768 1.768a2.487 2.487 0 0 1-1.768.732Zm-1.414-6.035-1.062 1.061a1.504 1.504 0 0 0 0 2.122l1.415 1.414c.565.566 1.554.567 2.121 0l1.061-1.061-3.535-3.536ZM810.334 32a3.475 3.475 0 0 1-2.475-1.025c-.661-.661-1.025-1.54-1.025-2.475s.364-1.814 1.025-2.475c1.32-1.321 3.627-1.322 4.949 0 .661.661 1.025 1.54 1.025 2.475s-.364 1.813-1.025 2.475A3.477 3.477 0 0 1 810.333 32Zm0-6c-.668 0-1.296.26-1.768.732-.473.472-.732 1.1-.732 1.768s.26 1.295.732 1.768c.943.944 2.59.945 3.535 0 .473-.472.732-1.1.732-1.768s-.26-1.295-.732-1.768S811 26 810.333 26ZM458.84 77.985h-.018l-125.155-.47c-2.427-.009-4.438-1.99-4.484-4.415V54.5h1v18.59c.036 1.877 1.6 3.417 3.488 3.424l125.155.47h.014c.933 0 1.81-.362 2.471-1.021a3.474 3.474 0 0 0 1.029-2.479V64.86h1v8.624a4.47 4.47 0 0 1-1.324 3.188 4.468 4.468 0 0 1-3.176 1.312Zm133.143-54.21v-8.979c0-2.481-2.019-4.5-4.5-4.5h-21.799a4.505 4.505 0 0 0-4.5 4.5v38.53c0 1.93-1.57 3.5-3.5 3.5h-12c-1.93 0-3.5-1.57-3.5-3.5V29.202c0-2.481-2.019-4.5-4.5-4.5h-12.559c.035.262.059.527.059.798 0 .068-.008.134-.01.202h12.51c1.93 0 3.5 1.57 3.5 3.5v24.124c0 2.481 2.019 4.5 4.5 4.5h12c2.481 0 4.5-2.019 4.5-4.5v-38.53c0-1.93 1.57-3.5 3.5-3.5h21.799c1.93 0 3.5 1.57 3.5 3.5v9.394l19.238 19.239.707-.707-18.945-18.946Zm86.678 29.572c-1.902-5.933.05-14.602 4.975-22.084 3.938-5.984 9.021-9.822 13.597-10.265.908-.088 1.829-.13 2.763-.13 10.415 0 22.133 5.33 27.674 12.86 3.76 5.11 4.471 10.843 2.055 16.579-3.384 8.036-11.465 13.262-21.748 16.647.084.314.148.635.179.967 10.601-3.472 18.97-8.867 22.49-17.226 2.56-6.078 1.809-12.15-2.172-17.559-6.226-8.462-19.991-14.232-31.337-13.132-4.947.479-10.173 4.383-14.337 10.711-5.084 7.725-7.082 16.729-5.092 22.939 2.12 6.613 9.206 11.068 18.556 13.914.048-.309.115-.612.209-.904-9.006-2.743-15.792-7.012-17.812-13.316ZM654.184 73c-11.805 0-18.653-5.86-24.146-11.354l-.707.707c5.635 5.635 12.667 11.646 24.854 11.646 13.266 0 28.772-.526 42.471-3.166a6.007 6.007 0 0 1-.303-.944c-13.579 2.594-28.988 3.11-42.168 3.11Z" id="reuse-20"/><path d="M778.831 59.146c-4.186 4.186-10.355 8.822-30.696 10.856-11.855 1.186-26.895 1.271-40.001-.757a5.993 5.993 0 0 1-.189.925c13.237 2.081 28.359 2.021 40.29.827 20.669-2.067 26.996-6.836 31.304-11.144l-.707-.707Zm65.995-10.188a18.54 18.54 0 0 1-15.049-7.711l-.963-1.34 1.545.581c.43.162.862.301 1.285.415 3.485.933 7.122.454 10.244-1.349s5.356-4.714 6.289-8.197c1.927-7.19-2.355-14.607-9.546-16.534a13.813 13.813 0 0 0-1.318-.283l-1.629-.269 1.504-.68a18.539 18.539 0 0 1 12.397-1.009 18.376 18.376 0 0 1 11.232 8.62 18.382 18.382 0 0 1 1.849 14.038 18.378 18.378 0 0 1-8.619 11.233 18.393 18.393 0 0 1-9.221 2.486Zm-13.245-7.039a17.54 17.54 0 0 0 8.687 5.435 17.392 17.392 0 0 0 13.279-1.749 17.38 17.38 0 0 0 8.152-10.626c1.21-4.515.59-9.231-1.747-13.279a17.389 17.389 0 0 0-10.627-8.154 17.523 17.523 0 0 0-10.238.364c7.604 2.151 12.107 10.047 10.057 17.705a14.41 14.41 0 0 1-6.756 8.805 14.396 14.396 0 0 1-10.807 1.5Zm-400.606-4.554a12.46 12.46 0 0 1-8.839-3.655c-4.874-4.874-4.874-12.804 0-17.678 4.874-4.873 12.804-4.873 17.678 0 4.874 4.874 4.874 12.804 0 17.678a12.46 12.46 0 0 1-8.839 3.655Zm-8.132-20.625c-4.483 4.484-4.483 11.78 0 16.264 4.483 4.482 11.779 4.482 16.264 0 4.483-4.484 4.483-11.78 0-16.264-4.483-4.482-11.779-4.482-16.264 0Z" id="reuse-21"/><path d="M518.684 31.475v5.321c0 1.654-1.346 3-3 3h-62.098l-6.849-6.849c3.191-6.689 2.037-14.934-3.503-20.473-.241-.241-.499-.453-.75-.678h73.2c1.654 0 3 1.346 3 3v4.729c.165-.014.331-.025.5-.025s.335.012.5.025v-4.729a4 4 0 0 0-4-4h-74.418c-3.183-2.383-6.966-3.594-10.759-3.594s-7.576 1.211-10.76 3.594h-16.063a4 4 0 0 0-4 4v22a4 4 0 0 0 4 4h17.85c2.96 1.92 5.543 2.392 8.945 2.392 2.66 0 5.321-.586 7.773-1.756L462.68 65.86l8.485-8.485-16.579-16.579h61.098a4 4 0 0 0 4-4v-5.321c-.165.014-.331.025-.5.025s-.335-.012-.5-.025Zm-99.489 8.321h-15.511c-1.654 0-3-1.346-3-3v-22c0-1.654 1.346-3 3-3h14.846c-.251.224-.51.437-.751.678-7.029 7.029-7.029 18.426 0 25.456.825.825 2.417 1.866 2.417 1.866h-1Zm50.556 17.579-7.071 7.071-23.721-23.721-.5-.5-.638.304a17.154 17.154 0 0 1-7.343 1.658 16.845 16.845 0 0 1-11.993-4.966c-3.211-3.211-4.979-7.48-4.979-12.021s1.768-8.81 4.979-12.021c3.211-3.211 7.48-4.979 12.021-4.979s8.81 1.768 12.021 4.979c5.075 5.075 6.404 12.845 3.307 19.336l-.304.638.5.5 23.721 23.721Z" id="reuse-22"/><path d="M442.485 11.796h-.001.001z" id="reuse-23"/><path d="M210.334 70.5c-3.584 0-6.5-2.916-6.5-6.5s2.916-6.5 6.5-6.5 6.5 2.916 6.5 6.5-2.916 6.5-6.5 6.5Zm0-12c-3.033 0-5.5 2.467-5.5 5.5s2.467 5.5 5.5 5.5 5.5-2.467 5.5-5.5-2.467-5.5-5.5-5.5Zm119.35-3.5c-3.584 0-6.5-2.916-6.5-6.5s2.916-6.5 6.5-6.5 6.5 2.916 6.5 6.5-2.916 6.5-6.5 6.5Zm0-12c-3.033 0-5.5 2.467-5.5 5.5s2.467 5.5 5.5 5.5 5.5-2.467 5.5-5.5-2.467-5.5-5.5-5.5Zm189.5-11c-3.584 0-6.5-2.916-6.5-6.5s2.916-6.5 6.5-6.5 6.5 2.916 6.5 6.5-2.916 6.5-6.5 6.5Zm0-12c-3.032 0-5.5 2.467-5.5 5.5s2.468 5.5 5.5 5.5 5.5-2.467 5.5-5.5-2.468-5.5-5.5-5.5Zm183.001 55c-3.584 0-6.5-2.916-6.5-6.5s2.916-6.5 6.5-6.5 6.5 2.916 6.5 6.5-2.916 6.5-6.5 6.5Zm0-12c-3.032 0-5.5 2.468-5.5 5.5s2.468 5.5 5.5 5.5 5.5-2.468 5.5-5.5-2.468-5.5-5.5-5.5Zm84.137-2.267-8.151-8.151.18-.329c.542-.991 1.335-2.195 2.103-3.36.583-.885 1.133-1.721 1.51-2.369l.819-1.374c7.23-12.153 11.207-16.188 11.373-16.353 7.063-7.063 13.777-8.527 17.15-8.771l1.545-.045c2.203.044 4.136.543 4.833 1.242.675.675 1.155 2.604 1.195 4.798l-.048 1.544c-.308 4.189-2.066 10.553-8.71 17.197-.167.167-4.213 4.132-16.358 11.369l-1.372.813c-.618.364-1.401.88-2.23 1.425-1.216.8-2.473 1.627-3.51 2.187l-.327.177Zm-6.912-8.326 7.089 7.089c.936-.531 2.039-1.257 3.11-1.962.845-.555 1.644-1.081 2.271-1.451l1.37-.812c12.014-7.159 16.124-11.178 16.164-11.218 6.425-6.425 8.124-12.542 8.417-16.541l.047-1.498c-.045-2.443-.627-3.809-.902-4.084-.341-.341-1.762-.901-4.121-.949l-1.499.043c-3.213.232-9.66 1.645-16.494 8.479-.04.04-4.07 4.138-11.221 16.158l-.816 1.369c-.389.667-.946 1.515-1.537 2.412-.672 1.021-1.365 2.072-1.878 2.964Z" id="reuse-24"/></defs><defs><linearGradient id="b" x1="23.684" y1="41.309" x2="863.304" y2="41.309" gradientUnits="userSpaceOnUse"><stop offset="0" stop-color="#00d1df"/><stop offset="1" stop-color="#ff3860"/></linearGradient><linearGradient id="c" gradientTransform="rotate(45 789.414 49.42)" xlink:href="#b"/><style>.e{fill:url(#b)}.f{fill:#00c79b}</style></defs><g id="a"><use xlink:href="#reuse-0"/><use xlink:href="#reuse-1"/><use xlink:href="#reuse-2"/><use xlink:href="#reuse-3"/><use xlink:href="#reuse-4"/><use xlink:href="#reuse-5"/><use xlink:href="#reuse-6"/><use xlink:href="#reuse-7"/><use xlink:href="#reuse-8"/><use xlink:href="#reuse-9"/><use xlink:href="#reuse-10"/><use xlink:href="#reuse-11"/><use xlink:href="#reuse-12"/><use xlink:href="#reuse-13"/><use xlink:href="#reuse-14"/><use xlink:href="#reuse-15"/><use xlink:href="#reuse-16"/><use xlink:href="#reuse-17"/><use xlink:href="#reuse-18"/><use xlink:href="#reuse-19"/><path transform="rotate(-45 789.413 49.42)" d="M781.413 48.92h16v1h-16z"/><use xlink:href="#reuse-20"/><use xlink:href="#reuse-21"/><use xlink:href="#reuse-22"/><use xlink:href="#reuse-23"/><use xlink:href="#reuse-24"/><use class="e" xlink:href="#reuse-0"/><use class="e" xlink:href="#reuse-1"/><use class="e" xlink:href="#reuse-2"/><use class="e" xlink:href="#reuse-3"/><use class="e" xlink:href="#reuse-4"/><use class="e" xlink:href="#reuse-5"/><use class="e" xlink:href="#reuse-6"/><use class="e" xlink:href="#reuse-7"/><use class="e" xlink:href="#reuse-8"/><use class="e" xlink:href="#reuse-9"/><use class="e" xlink:href="#reuse-10"/><use class="e" xlink:href="#reuse-11"/><use class="e" xlink:href="#reuse-12"/><use class="e" xlink:href="#reuse-13"/><use class="e" xlink:href="#reuse-14"/><use class="e" xlink:href="#reuse-15"/><use class="e" xlink:href="#reuse-16"/><use class="e" xlink:href="#reuse-17"/><use class="e" xlink:href="#reuse-18"/><use class="e" xlink:href="#reuse-19"/><path transform="rotate(-45 789.413 49.42)" fill="url(#c)" d="M781.413 48.92h16v1h-16z"/><use class="e" xlink:href="#reuse-20"/><use class="e" xlink:href="#reuse-21"/><use class="e" xlink:href="#reuse-22"/><use class="e" xlink:href="#reuse-23"/><use class="e" xlink:href="#reuse-24"/></g><g id="d"><path class="f" d="M41.004 63.027 23.831 45.854l.707-.708 16.466 16.467 34.615-34.615.707.707-35.322 35.322z"/><path class="f" d="M59.184 51c-3.584 0-6.5-2.916-6.5-6.5s2.916-6.5 6.5-6.5 6.5 2.916 6.5 6.5-2.916 6.5-6.5 6.5Zm0-12c-3.033 0-5.5 2.467-5.5 5.5s2.467 5.5 5.5 5.5 5.5-2.468 5.5-5.5-2.467-5.5-5.5-5.5Z"/></g></svg>