<svg id="Ebene_1" data-name="Ebene 1" xmlns="http://www.w3.org/2000/svg" xmlns:xlink="http://www.w3.org/1999/xlink" viewBox="0 0 1200 628"><defs><style>.cls-1{fill:none;}.cls-2{fill:#0483a0;}.cls-3{fill:#0496ad;}.cls-4{fill:#005281;}.cls-5{fill:#013c66;}.cls-6{fill:#c7c6c5;}.cls-7{clip-path:url(#clip-path);}.cls-8{fill:url(#linear-gradient);}.cls-9{clip-path:url(#clip-path-2);}.cls-10{fill:url(#linear-gradient-2);}.cls-11{clip-path:url(#clip-path-3);}.cls-12{fill:url(#linear-gradient-3);}.cls-13{clip-path:url(#clip-path-4);}.cls-14{fill:url(#linear-gradient-4);}.cls-15{clip-path:url(#clip-path-5);}.cls-16{fill:url(#linear-gradient-5);}.cls-17{fill:#fff;}.cls-18{fill:#00d1b2;}</style><clipPath id="clip-path"><path class="cls-1" d="M806.59,486.36h0A55.41,55.41,0,0,1,814,469.23c55-136.64,213.86-198.19,299-213l0-.4a232.76,232.76,0,0,0-30.61-13.74c-40.06,10.88-241.14,73.6-275.86,244.29"/></clipPath><linearGradient id="linear-gradient" x1="116.49" y1="618.59" x2="122.13" y2="618.59" gradientTransform="matrix(54.32, 0, 0, -54.32, -5521.14, 33967.35)" gradientUnits="userSpaceOnUse"><stop offset="0" stop-color="#45bee9"/><stop offset="0.5" stop-color="#33a7df"/><stop offset="1" stop-color="#2b92d0"/></linearGradient><clipPath id="clip-path-2"><path class="cls-1" d="M810.83,457c-1.06,7.09-2.13,14.22-3.17,21.29,27-153.43,184.3-221.6,250.68-243.76a306.87,306.87,0,0,0-35-7.13C952.52,258.05,830.82,328.69,810.83,457"/></clipPath><linearGradient id="linear-gradient-2" x1="119.28" y1="619.83" x2="124.93" y2="619.83" gradientTransform="matrix(44.39, 0, 0, -44.39, -4486.57, 27864.34)" xlink:href="#linear-gradient"/><clipPath id="clip-path-3"><path class="cls-1" d="M962.48,224.71c-86.5,55.06-134.33,119-146.2,195.65l-3.18,21.31C819,408.15,837,306.14,997.73,224.78q-9.19-.54-18.33-.54c-5.68,0-11.33.16-16.92.47"/></clipPath><linearGradient id="linear-gradient-3" x1="124.85" y1="622.33" x2="130.5" y2="622.33" gradientTransform="matrix(32.69, 0, 0, -32.69, -3268.44, 20677.04)" xlink:href="#linear-gradient"/><clipPath id="clip-path-4"><path class="cls-1" d="M902.29,235.57c-34.7,34.26-68.41,75.57-80.08,145.12-1.06,7.1-2.13,14.18-3.19,21.31,5.34-30.33,17.84-101.35,114.52-174.13a213.68,213.68,0,0,0-31.25,7.7"/></clipPath><linearGradient id="linear-gradient-4" x1="137.78" y1="627.93" x2="143.43" y2="627.93" gradientTransform="matrix(20.28, 0, 0, -20.28, -1974.86, 13048.07)" xlink:href="#linear-gradient"/><clipPath id="clip-path-5"><path class="cls-1" d="M873.68,248.23A107.5,107.5,0,0,0,859,258.31c-15.53,27.06-25.13,48.76-31.3,85.79l-3.2,21.31c3.92-22.23,12.06-68.5,57.73-121.72q-4.41,2.15-8.53,4.54"/></clipPath><linearGradient id="linear-gradient-5" x1="171.4" y1="642.03" x2="177.05" y2="642.03" gradientTransform="matrix(10.22, 0, 0, -10.22, -927.53, 6867.28)" xlink:href="#linear-gradient"/></defs><path class="cls-2" d="M1162.86,188.35l10.75,7.87h0c-29.17-91.3-72.44-189.37-75.76-196.59H854.9C867.74,5.8,1014.82,80.36,1162.86,188.35Z"/><path class="cls-3" d="M1097.85-.37c3.32,7.22,46.57,105.29,75.76,196.68h0q13.44,9.93,26.81,20.28V-.37Z"/><path class="cls-4" d="M-1.21,363.8c37.83,21.89,154.47,93,387.24,264.48l.36.27h814v-412q-13.38-10.34-26.81-20.28-5.35-4-10.75-7.87c-148-108-295.12-182.61-308-188.78H-1.21Z"/><path class="cls-5" d="M386,628.28C153.26,456.76,36.62,385.69-1.21,363.8v264Z"/><path class="cls-6" d="M639,83.12l-.21.33c55.53,66.13,137.13,215.37,90.86,355.21a55.52,55.52,0,0,1-6.22,19.24C808.72,304.8,695,126.5,671.28,92.33A229.86,229.86,0,0,0,639,83.12"/><path class="cls-6" d="M728.64,449.61c78.54-134.64,2.36-288-34-347.59A303.5,303.5,0,0,1,726,119.14c34.24,69,81.6,201.26,14,312.14q-5.67,9.17-11.34,18.33"/><path class="cls-6" d="M748.12,418.12c17.15-29.4,69.39-118.89-.91-284.52a306.92,306.92,0,0,1,27,22.62C804.73,254,799.89,333.63,759.46,399.8Z"/><path class="cls-6" d="M769.23,384c15.54-26.61,51.89-88.93,25-206.75a213.46,213.46,0,0,1,18.92,26c4.35,48.52,3.43,101.78-32.61,162.44-3.77,6.12-7.57,12.23-11.35,18.33"/><path class="cls-6" d="M788.73,352.53c11.37-19.53,35-60.12,34.54-130.16,1.33,3,2.52,6,3.6,9a109.69,109.69,0,0,1,4.72,17.16c-5.61,30.67-12.32,53.42-31.53,85.71Z"/><g class="cls-7"><rect class="cls-8" x="806.59" y="242.07" width="306.47" height="244.29"/></g><g class="cls-9"><rect class="cls-10" x="807.66" y="227.35" width="250.68" height="250.89"/></g><g class="cls-11"><rect class="cls-12" x="813.1" y="224.24" width="184.63" height="217.43"/></g><g class="cls-13"><rect class="cls-14" x="819.02" y="227.87" width="114.52" height="174.13"/></g><g class="cls-15"><rect class="cls-16" x="824.48" y="243.69" width="57.73" height="121.71"/></g><path class="cls-17" d="M972.5,538.27a22.62,22.62,0,0,1-5.26.53c-5.3,0-9.29-3.26-9.29-9.91V525.1c0-6.64,4-9.9,9.29-9.9a22.07,22.07,0,0,1,5.26.53c.69.16.85.41.85,1.06v2.65c0,.4-.32.61-.73.61h-.12a34.14,34.14,0,0,0-5.26-.29c-1.91,0-3.91,1.1-3.91,5.34v3.79c0,4.24,2,5.34,3.91,5.34a35.72,35.72,0,0,0,5.26-.28h.12c.41,0,.73.2.73.61v2.65C973.35,537.86,973.19,538.1,972.5,538.27Z"/><path class="cls-17" d="M979.38,538.47h-3.79a.86.86,0,0,1-.82-.85V508.27a.82.82,0,0,1,.82-.82h3.79a.78.78,0,0,1,.77.82v29.35A.81.81,0,0,1,979.38,538.47Z"/><path class="cls-17" d="M991.69,538.8c-6.4,0-9.74-4.32-9.74-10.15v-3.3c0-5.83,3.34-10.15,9.74-10.15s9.74,4.32,9.74,10.15v3.3C1001.43,534.48,998.09,538.8,991.69,538.8Zm4.36-13.45c0-3.34-1.51-5.51-4.36-5.51s-4.36,2.17-4.36,5.51v3.3c0,3.34,1.51,5.5,4.36,5.5s4.36-2.16,4.36-5.5Z"/><path class="cls-17" d="M1021.13,538.47h-3.75a.82.82,0,0,1-.81-.81v-.94a10.55,10.55,0,0,1-6.4,2,6.9,6.9,0,0,1-5-1.72c-1.51-1.5-2-4-2-7.41V516.34a.86.86,0,0,1,.81-.86h3.75a.86.86,0,0,1,.82.86v13.29c0,2,.16,3.22.94,3.91a3.51,3.51,0,0,0,2.52.73,11.54,11.54,0,0,0,4.61-1.63v-16.3a.86.86,0,0,1,.81-.86h3.75a.86.86,0,0,1,.82.86v21.32A.82.82,0,0,1,1021.13,538.47Z"/><path class="cls-17" d="M1041.64,537.74a34.92,34.92,0,0,1-8.2,1.06c-6.56,0-9.74-3.87-9.74-10.23v-3.14c0-6.36,3.18-10.23,9.74-10.23a31.52,31.52,0,0,1,3.92.28v-7.21a.82.82,0,0,1,.81-.82h3.75a.82.82,0,0,1,.82.82v28.37C1042.74,537.25,1042.57,537.49,1041.64,537.74Zm-4.28-17.85a32.79,32.79,0,0,0-3.92-.29c-3.5,0-4.36,2.49-4.36,5.83v3.14c0,3.34.86,5.83,4.36,5.83a24.1,24.1,0,0,0,3.92-.29Z"/><path class="cls-17" d="M1054.23,538.8c-6.4,0-9.75-4.32-9.75-10.15v-3.3c0-5.83,3.35-10.15,9.75-10.15s9.74,4.32,9.74,10.15v3.3C1064,534.48,1060.62,538.8,1054.23,538.8Zm4.36-13.45c0-3.34-1.51-5.51-4.36-5.51s-4.37,2.17-4.37,5.51v3.3c0,3.34,1.51,5.5,4.37,5.5s4.36-2.16,4.36-5.5Z"/><path class="cls-17" d="M1084.91,519.19l-1.34.53a5.22,5.22,0,0,1,1,3.26v.29c0,5.09-3.51,7.42-9.66,7.42a12.2,12.2,0,0,1-4.45-.7,1.31,1.31,0,0,0-.69,1.06c0,.82.45,1.14,1.39,1.35l4.81,1.14c5.54,1.3,9.13,2.16,9.13,6.52v.29c0,4.15-3.06,6.39-10,6.39-6.6,0-10.11-2.48-10.11-6.76v-.37a6.13,6.13,0,0,1,2.08-4.48,4.73,4.73,0,0,1-1.83-3.75v0a4,4,0,0,1,1.63-3.3,6.27,6.27,0,0,1-1.67-4.77V523c0-4.07,2.65-7.5,9.7-7.5h9.53a1.1,1.1,0,0,1,1.1,1.1v1.72C1085.56,518.91,1085.4,519,1084.91,519.19Zm-5.17,20.87c0-.9-.53-1.43-4.81-2.44l-3.63-.86a4,4,0,0,0-1,2.85V540c0,1.67,1,2.69,4.85,2.69s4.61-.86,4.61-2.32Zm-.45-17c0-1.95-.86-3.46-4.36-3.46s-4.41,1.55-4.41,3.46v.33c0,1.51.62,3.22,4.41,3.22,3.38,0,4.36-1.18,4.36-3.22Z"/><path class="cls-17" d="M1104.61,538.47h-3.74a.82.82,0,0,1-.82-.81v-.94a10.55,10.55,0,0,1-6.4,2,6.9,6.9,0,0,1-5-1.72c-1.51-1.5-2-4-2-7.41V516.34a.86.86,0,0,1,.81-.86h3.75a.86.86,0,0,1,.82.86v13.29c0,2,.16,3.22.94,3.91a3.51,3.51,0,0,0,2.52.73,11.54,11.54,0,0,0,4.61-1.63v-16.3a.86.86,0,0,1,.82-.86h3.74a.86.86,0,0,1,.82.86v21.32A.82.82,0,0,1,1104.61,538.47Z"/><path class="cls-17" d="M1066.18,460.2a19.19,19.19,0,0,0-15.76-.66,18.43,18.43,0,0,0-6.09-12.6c-7.49-7.1-19.58-6.44-26.66,1.44a18.14,18.14,0,0,0-4.72,11.16,19.19,19.19,0,0,0-15.76.66c-7.5,3.51-13.41,14.54-8,25.22,3.93,7.78,13.72,11.48,20,10.85h45.23c6.25.57,15.93-3.14,19.83-10.86C1079.6,474.74,1073.68,463.71,1066.18,460.2Zm1.56,22.34c-2.3,4.24-6.27,5.85-10.76,6.25h-15.92a11.53,11.53,0,0,1-9.35,4.66,11.3,11.3,0,0,1-9.35-4.66l-15.8,0c-4.55-.38-8.6-2-10.93-6.27a11.72,11.72,0,1,1,21-10.42,11.87,11.87,0,0,1,.65,1.94l.53-.62a19.7,19.7,0,0,1,5.69-4.26,10.59,10.59,0,0,1-1.47-1.75l-.13-.23a11.72,11.72,0,1,1,20.37-1.24h0a11.8,11.8,0,0,1-2.33,3.21,19.6,19.6,0,0,1,5.7,4.26l.52.62a13.11,13.11,0,0,1,.66-1.94,11.72,11.72,0,1,1,21,10.42Z"/><path class="cls-17" d="M1064,476.84a6.48,6.48,0,0,1-12.5,2.38l.06.27L1038.94,482a7.23,7.23,0,0,1-14.46,0l-12.7-2.51a6.48,6.48,0,1,1,.56-2.65l12.52,2.58h0a7.26,7.26,0,0,1,5.52-4.77h0v-7.5a6.47,6.47,0,1,1,2.59,0v7.47a7.28,7.28,0,0,1,5.58,4.76l12.44-2.56.07.3c0-.1,0-.2,0-.3a6.48,6.48,0,0,1,13,0Z"/><rect class="cls-18" x="123.05" y="439.45" width="360.02" height="99.74" rx="5"/><path class="cls-17" d="M123.73,210.46V199.84a20.36,20.36,0,0,0,6.27,3.63,20.15,20.15,0,0,0,6.84,1.22,15.39,15.39,0,0,0,3.54-.37,8.13,8.13,0,0,0,2.52-1,4.32,4.32,0,0,0,1.51-1.53,3.73,3.73,0,0,0,.5-1.91,4.07,4.07,0,0,0-.8-2.49,8.5,8.5,0,0,0-2.17-2,23.3,23.3,0,0,0-3.27-1.8c-1.26-.57-2.62-1.16-4.09-1.76a20.89,20.89,0,0,1-8.31-5.67,12.4,12.4,0,0,1-2.74-8.11,13,13,0,0,1,1.49-6.39,12.7,12.7,0,0,1,4.07-4.4,18.45,18.45,0,0,1,6-2.54,30.77,30.77,0,0,1,7.17-.81,42.91,42.91,0,0,1,6.59.45,26,26,0,0,1,5.3,1.38v9.92a16.43,16.43,0,0,0-2.61-1.46,20,20,0,0,0-2.9-1,21.73,21.73,0,0,0-5.78-.82,14.77,14.77,0,0,0-3.32.35,8.34,8.34,0,0,0-2.52,1,5,5,0,0,0-1.6,1.51,3.65,3.65,0,0,0-.56,2,3.79,3.79,0,0,0,.63,2.14,7.22,7.22,0,0,0,1.79,1.79,18.94,18.94,0,0,0,2.82,1.66c1.11.54,2.36,1.1,3.76,1.68a42.28,42.28,0,0,1,5.13,2.54,18.61,18.61,0,0,1,3.9,3,12.07,12.07,0,0,1,2.49,3.86,13.84,13.84,0,0,1,.86,5.07,13.54,13.54,0,0,1-1.51,6.69,12.3,12.3,0,0,1-4.1,4.38,17.86,17.86,0,0,1-6,2.41,34.61,34.61,0,0,1-7.25.73,40.68,40.68,0,0,1-7.46-.66A22.56,22.56,0,0,1,123.73,210.46Z"/><path class="cls-17" d="M198.85,210.6q-5.22,2.52-13.61,2.52-11,0-17.24-6.44t-6.27-17.17q0-11.41,7.05-18.53t18.32-7.1a34.34,34.34,0,0,1,11.75,1.76V176A20.78,20.78,0,0,0,188,173.11a14.48,14.48,0,0,0-10.83,4.22Q173,181.54,173,188.75q0,6.9,3.88,11t10.46,4.1a22.31,22.31,0,0,0,11.49-3.06Z"/><path class="cls-17" d="M262.08,212.29H251.49V183.8c0-3.08.13-6.47.4-10.19h-.27a50.61,50.61,0,0,1-1.49,6.31L239,212.29h-8.76l-11.36-32a61.75,61.75,0,0,1-1.49-6.64h-.3q.44,7,.43,12.35v26.33h-9.66V164.68h15.7l9.73,28.22a39.9,39.9,0,0,1,1.7,6.81h.2a65,65,0,0,1,1.89-6.88l9.73-28.15h15.3Z"/><path class="cls-17" d="M291.05,197.81H272.89v-7.34h18.16Z"/><path class="cls-17" d="M356,212.29H345.42V183.8c0-3.08.14-6.47.4-10.19h-.26a52.06,52.06,0,0,1-1.5,6.31L332.9,212.29h-8.76l-11.36-32a64.49,64.49,0,0,1-1.49-6.64H311q.43,7,.43,12.35v26.33h-9.66V164.68h15.71l9.72,28.22a39.9,39.9,0,0,1,1.7,6.81h.2a65,65,0,0,1,1.89-6.88l9.73-28.15H356Z"/><path class="cls-17" d="M394.78,212.29h-9.93v-4.88h-.13a11.08,11.08,0,0,1-10.13,5.71,10.62,10.62,0,0,1-7.79-2.81,10,10,0,0,1-2.83-7.48q0-9.9,11.72-11.43l9.23-1.22q0-5.58-6.05-5.58a20.55,20.55,0,0,0-11.55,3.62v-7.91a26.38,26.38,0,0,1,6-2,31.84,31.84,0,0,1,6.92-.86q14.55,0,14.55,14.51Zm-9.86-13.81v-2.29l-6.18.79c-3.41.45-5.11,2-5.11,4.62a3.83,3.83,0,0,0,1.24,2.94,4.81,4.81,0,0,0,3.37,1.14,6.23,6.23,0,0,0,4.82-2A7.37,7.37,0,0,0,384.92,198.48Z"/><path class="cls-17" d="M436.6,212.29H426.14V193.4q0-7.91-5.65-7.91a5.59,5.59,0,0,0-4.48,2.1,8,8,0,0,0-1.76,5.31v19.39H403.76v-34h10.49v5.38h.13a12,12,0,0,1,10.93-6.21q11.28,0,11.29,14Z"/><path class="cls-17" d="M473.87,212.29h-9.93v-4.88h-.13a11.08,11.08,0,0,1-10.13,5.71,10.62,10.62,0,0,1-7.79-2.81,10,10,0,0,1-2.84-7.48q0-9.9,11.72-11.43l9.23-1.22q0-5.58-6-5.58a20.55,20.55,0,0,0-11.55,3.62v-7.91a26.38,26.38,0,0,1,6-2,31.77,31.77,0,0,1,6.92-.86q14.55,0,14.55,14.51ZM464,198.48v-2.29l-6.17.79c-3.41.45-5.11,2-5.11,4.62a3.83,3.83,0,0,0,1.24,2.94,4.79,4.79,0,0,0,3.37,1.14,6.23,6.23,0,0,0,4.82-2A7.4,7.4,0,0,0,464,198.48Z"/><path class="cls-17" d="M516.18,208.4q0,9.47-5.47,14.66t-15.88,5.2q-6.87,0-10.89-2v-8.83a20.83,20.83,0,0,0,10.6,3.05q5.31,0,8.23-2.8a10.06,10.06,0,0,0,2.92-7.62v-2.69h-.13A11.71,11.71,0,0,1,495,213.12a12.76,12.76,0,0,1-10.33-4.58q-3.83-4.59-3.82-12.29,0-8.62,4.25-13.71a13.87,13.87,0,0,1,11.19-5.08q6.21,0,9.3,4.78h.13v-4h10.49ZM505.82,196v-2.69a8.28,8.28,0,0,0-1.9-5.49,6.19,6.19,0,0,0-5-2.28,6.42,6.42,0,0,0-5.48,2.73q-2,2.72-2,7.67a10.81,10.81,0,0,0,1.89,6.72,6.16,6.16,0,0,0,5.18,2.47,6.43,6.43,0,0,0,5.27-2.5A10.33,10.33,0,0,0,505.82,196Z"/><path class="cls-17" d="M556.18,198.28H534q.53,7.4,9.33,7.4a18.23,18.23,0,0,0,9.86-2.65v7.57q-4.73,2.52-12.25,2.52-8.24,0-12.79-4.57t-4.55-12.73q0-8.46,4.92-13.41a16.35,16.35,0,0,1,12.08-4.95q7.44,0,11.51,4.42t4.07,12Zm-9.73-6.44q0-7.31-5.91-7.31a5.67,5.67,0,0,0-4.37,2.09,9.56,9.56,0,0,0-2.24,5.22Z"/><path class="cls-17" d="M585.28,187.75a9.19,9.19,0,0,0-4.42-1,6.35,6.35,0,0,0-5.34,2.51,10.9,10.9,0,0,0-1.93,6.82v16.24H563.1v-34h10.49v6.31h.13q2.49-6.91,9-6.91a6.69,6.69,0,0,1,2.59.4Z"/><path class="cls-17" d="M203.19,498.89a17.24,17.24,0,0,1-8.64,2.2,11.79,11.79,0,0,1-8.94-3.57,13.08,13.08,0,0,1-3.41-9.43,13.44,13.44,0,0,1,3.79-9.84,12.9,12.9,0,0,1,9.6-3.84,16.32,16.32,0,0,1,7.07,1.37v3.35a13.56,13.56,0,0,0-7.41-2,9.25,9.25,0,0,0-7.11,3,12.48,12.48,0,0,0-.2,15.43,9,9,0,0,0,7,2.8,10.71,10.71,0,0,0,5.24-1.21v-7.23h-5.65v-2.74h8.68Z"/><path class="cls-17" d="M223.6,492.18h-13a6.89,6.89,0,0,0,1.66,4.75,5.74,5.74,0,0,0,4.36,1.67,9,9,0,0,0,5.72-2.05v2.77a10.67,10.67,0,0,1-6.43,1.77,7.78,7.78,0,0,1-6.13-2.51,10.29,10.29,0,0,1-2.24-7.07,10.11,10.11,0,0,1,2.44-7,7.82,7.82,0,0,1,6.06-2.71,6.94,6.94,0,0,1,5.6,2.34,9.77,9.77,0,0,1,2,6.5Zm-3-2.5a6,6,0,0,0-1.23-4,4.18,4.18,0,0,0-3.37-1.42,4.74,4.74,0,0,0-3.55,1.49,6.82,6.82,0,0,0-1.8,3.91Z"/><path class="cls-17" d="M236.61,500.48a5.71,5.71,0,0,1-2.75.57q-4.85,0-4.84-5.4V484.74h-3.17v-2.52H229v-4.5l2.95-1v5.45h4.64v2.52H232v10.39a4.34,4.34,0,0,0,.63,2.65,2.53,2.53,0,0,0,2.09.79,3.09,3.09,0,0,0,1.92-.62Z"/><path class="cls-17" d="M249.1,500.48a5.71,5.71,0,0,1-2.75.57q-4.84,0-4.84-5.4V484.74h-3.17v-2.52h3.17v-4.5l3-1v5.45h4.64v2.52h-4.64v10.39a4.34,4.34,0,0,0,.63,2.65,2.54,2.54,0,0,0,2.09.79,3.09,3.09,0,0,0,1.92-.62Z"/><path class="cls-17" d="M254.56,477.54a1.86,1.86,0,0,1-1.35-.54,1.78,1.78,0,0,1-.56-1.36,1.81,1.81,0,0,1,.56-1.38,1.83,1.83,0,0,1,1.35-.55,1.86,1.86,0,0,1,1.37.55,1.82,1.82,0,0,1,.57,1.38,1.91,1.91,0,0,1-1.94,1.9ZM256,500.65h-3V482.22h3Z"/><path class="cls-17" d="M277.27,500.65h-2.95V490.14q0-5.86-4.28-5.86a4.66,4.66,0,0,0-3.67,1.66,6.2,6.2,0,0,0-1.45,4.2v10.51H262V482.22h2.95v3.06H265a6.63,6.63,0,0,1,6-3.49,5.65,5.65,0,0,1,4.63,1.95,8.72,8.72,0,0,1,1.6,5.65Z"/><path class="cls-17" d="M298.57,499.18q0,10.15-9.72,10.15a13,13,0,0,1-6-1.3v-2.95a12.21,12.21,0,0,0,5.94,1.73q6.81,0,6.8-7.24v-2h-.07a7.45,7.45,0,0,1-11.87,1.07,9.82,9.82,0,0,1-2.1-6.6,11.52,11.52,0,0,1,2.26-7.47,7.58,7.58,0,0,1,6.19-2.77,6,6,0,0,1,5.52,3h.07v-2.56h3Zm-3-6.86V489.6a5.28,5.28,0,0,0-1.48-3.76,4.89,4.89,0,0,0-3.7-1.56,5.13,5.13,0,0,0-4.28,2,8.86,8.86,0,0,0-1.55,5.58,7.61,7.61,0,0,0,1.48,4.92A4.8,4.8,0,0,0,290,498.6a5.13,5.13,0,0,0,4-1.76A6.57,6.57,0,0,0,295.61,492.32Z"/><path class="cls-17" d="M313.52,500v-3.17a8.73,8.73,0,0,0,5.31,1.78c2.6,0,3.89-.86,3.89-2.59a2.26,2.26,0,0,0-.33-1.25,3.24,3.24,0,0,0-.9-.91,7.2,7.2,0,0,0-1.33-.71l-1.65-.66a20.17,20.17,0,0,1-2.15-1,6.49,6.49,0,0,1-1.55-1.11,4.11,4.11,0,0,1-.93-1.42,4.78,4.78,0,0,1-.32-1.85,4.5,4.5,0,0,1,.59-2.3,5.38,5.38,0,0,1,1.59-1.67,7.4,7.4,0,0,1,2.26-1,9.91,9.91,0,0,1,2.62-.34,10.61,10.61,0,0,1,4.28.83v3a8.35,8.35,0,0,0-4.68-1.33,5.69,5.69,0,0,0-1.49.18,3.94,3.94,0,0,0-1.15.53,2.61,2.61,0,0,0-.74.82,2.22,2.22,0,0,0-.26,1.06,2.54,2.54,0,0,0,.26,1.2,2.63,2.63,0,0,0,.77.87,5.82,5.82,0,0,0,1.22.68c.48.21,1,.43,1.64.67a22.22,22.22,0,0,1,2.2,1,7.12,7.12,0,0,1,1.65,1.12,4.34,4.34,0,0,1,1.06,1.43,4.7,4.7,0,0,1,.37,1.92,4.55,4.55,0,0,1-.61,2.38,5.13,5.13,0,0,1-1.61,1.67,7,7,0,0,1-2.32,1,11.26,11.26,0,0,1-2.75.33A10.53,10.53,0,0,1,313.52,500Z"/><path class="cls-17" d="M338.83,500.48a5.71,5.71,0,0,1-2.75.57q-4.84,0-4.84-5.4V484.74h-3.17v-2.52h3.17v-4.5l2.95-1v5.45h4.64v2.52h-4.64v10.39a4.34,4.34,0,0,0,.63,2.65,2.53,2.53,0,0,0,2.09.79,3.09,3.09,0,0,0,1.92-.62Z"/><path class="cls-17" d="M356,500.65h-3v-2.87h-.07a6.18,6.18,0,0,1-5.67,3.31,6.08,6.08,0,0,1-4.31-1.46,5,5,0,0,1-1.55-3.87q0-5.16,6.08-6L353,489q0-4.7-3.79-4.69a9.06,9.06,0,0,0-6,2.26v-3a11.43,11.43,0,0,1,6.26-1.73q6.5,0,6.5,6.88Zm-3-9.32-4.44.61a7.3,7.3,0,0,0-3.1,1,3,3,0,0,0-1,2.58,2.83,2.83,0,0,0,1,2.21,3.73,3.73,0,0,0,2.57.85,4.71,4.71,0,0,0,3.62-1.54,5.45,5.45,0,0,0,1.43-3.89Z"/><path class="cls-17" d="M371.14,485.21a3.66,3.66,0,0,0-2.23-.59,3.77,3.77,0,0,0-3.16,1.78,8.22,8.22,0,0,0-1.27,4.86v9.39h-3V482.22h3V486h.07a6.39,6.39,0,0,1,1.93-3,4.37,4.37,0,0,1,2.9-1.09,4.79,4.79,0,0,1,1.76.25Z"/><path class="cls-17" d="M384,500.48a5.78,5.78,0,0,1-2.76.57q-4.84,0-4.84-5.4V484.74h-3.17v-2.52h3.17v-4.5l2.95-1v5.45H384v2.52h-4.65v10.39a4.34,4.34,0,0,0,.63,2.65,2.54,2.54,0,0,0,2.09.79A3.12,3.12,0,0,0,384,498Z"/><path class="cls-17" d="M402.42,492.18h-13a6.89,6.89,0,0,0,1.66,4.75,5.7,5.7,0,0,0,4.35,1.67,9.05,9.05,0,0,0,5.73-2.05v2.77a10.69,10.69,0,0,1-6.43,1.77,7.82,7.82,0,0,1-6.14-2.51c-1.49-1.68-2.23-4-2.23-7.07a10.06,10.06,0,0,1,2.44-7,7.81,7.81,0,0,1,6.06-2.71,6.92,6.92,0,0,1,5.59,2.34,9.77,9.77,0,0,1,2,6.5Zm-3-2.5a6,6,0,0,0-1.23-4,4.2,4.2,0,0,0-3.38-1.42,4.74,4.74,0,0,0-3.54,1.49,6.7,6.7,0,0,0-1.8,3.91Z"/><path class="cls-17" d="M422.62,500.65h-2.95v-3.13h-.08a6.79,6.79,0,0,1-6.33,3.57,6.87,6.87,0,0,1-5.55-2.48,10.12,10.12,0,0,1-2.08-6.74,11,11,0,0,1,2.3-7.32,7.6,7.6,0,0,1,6.14-2.76,5.9,5.9,0,0,1,5.52,3h.08V473.37h2.95Zm-2.95-8.33V489.6a5.32,5.32,0,0,0-1.48-3.78,4.94,4.94,0,0,0-3.74-1.54,5.1,5.1,0,0,0-4.25,2,8.68,8.68,0,0,0-1.55,5.47,7.81,7.81,0,0,0,1.49,5,4.85,4.85,0,0,0,4,1.84,5,5,0,0,0,4-1.78A6.68,6.68,0,0,0,419.67,492.32Z"/><path class="cls-17" d="M142.41,257h-7.73v23.94h-3.14V257h-7.72v-2.84h18.59Z"/><path class="cls-17" d="M162.46,280.94H159.4v-11c0-4-1.48-6-4.45-6a4.85,4.85,0,0,0-3.77,1.73,6.44,6.44,0,0,0-1.53,4.44v10.83h-3.07V252.62h3.07V265h.07a7,7,0,0,1,6.28-3.62q6.47,0,6.46,7.79Z"/><path class="cls-17" d="M184,272.15H170.48a7.2,7.2,0,0,0,1.72,4.93,6,6,0,0,0,4.52,1.73,9.37,9.37,0,0,0,5.94-2.13v2.88a11.08,11.08,0,0,1-6.66,1.83,8.09,8.09,0,0,1-6.37-2.6q-2.32-2.61-2.32-7.34a10.44,10.44,0,0,1,2.53-7.27,8.1,8.1,0,0,1,6.29-2.81,7.21,7.21,0,0,1,5.81,2.43,10.09,10.09,0,0,1,2.05,6.74Zm-3.14-2.6a6.22,6.22,0,0,0-1.28-4.13,4.37,4.37,0,0,0-3.5-1.48,4.94,4.94,0,0,0-3.68,1.56,7,7,0,0,0-1.87,4.05Z"/><path class="cls-17" d="M215.24,272.15h-13.5a7.2,7.2,0,0,0,1.71,4.93,6,6,0,0,0,4.52,1.73,9.37,9.37,0,0,0,5.94-2.13v2.88a11.08,11.08,0,0,1-6.66,1.83,8.09,8.09,0,0,1-6.37-2.6q-2.32-2.61-2.32-7.34a10.44,10.44,0,0,1,2.53-7.27,8.1,8.1,0,0,1,6.29-2.81,7.19,7.19,0,0,1,5.81,2.43,10.09,10.09,0,0,1,2.05,6.74Zm-3.14-2.6a6.22,6.22,0,0,0-1.28-4.13,4.37,4.37,0,0,0-3.5-1.48,4.94,4.94,0,0,0-3.68,1.56,7,7,0,0,0-1.87,4.05Z"/><path class="cls-17" d="M234,280.94h-3.07v-3h-.07a6.39,6.39,0,0,1-5.88,3.44,6.29,6.29,0,0,1-4.48-1.51,5.27,5.27,0,0,1-1.61-4q0-5.36,6.31-6.24l5.73-.8q0-4.87-3.94-4.88a9.44,9.44,0,0,0-6.24,2.36v-3.14a11.91,11.91,0,0,1,6.51-1.79q6.73,0,6.74,7.13Zm-3.07-9.67-4.61.63a7.39,7.39,0,0,0-3.21,1.06,3,3,0,0,0-1.09,2.68,3,3,0,0,0,1,2.29,3.89,3.89,0,0,0,2.67.88,4.92,4.92,0,0,0,3.76-1.59,5.73,5.73,0,0,0,1.48-4.05Z"/><path class="cls-17" d="M238.94,280.25V277a9.09,9.09,0,0,0,5.52,1.84c2.69,0,4-.89,4-2.69a2.22,2.22,0,0,0-.35-1.29,3.49,3.49,0,0,0-.93-.95,7.42,7.42,0,0,0-1.38-.74l-1.71-.68a19,19,0,0,1-2.23-1,6.7,6.7,0,0,1-1.61-1.15,4.33,4.33,0,0,1-1-1.47,5.15,5.15,0,0,1-.33-1.92,4.63,4.63,0,0,1,.62-2.39,5.41,5.41,0,0,1,1.64-1.73,7.75,7.75,0,0,1,2.35-1.06,10.6,10.6,0,0,1,2.71-.35,10.87,10.87,0,0,1,4.45.86v3.1a8.7,8.7,0,0,0-4.86-1.39,5.71,5.71,0,0,0-1.55.2,3.9,3.9,0,0,0-1.18.55,2.59,2.59,0,0,0-.77.85,2.26,2.26,0,0,0-.27,1.09,2.67,2.67,0,0,0,.27,1.26,2.78,2.78,0,0,0,.8.89,5.8,5.8,0,0,0,1.27.71c.49.21,1.06.44,1.7.69.84.33,1.6.66,2.27,1a7.83,7.83,0,0,1,1.72,1.16,4.54,4.54,0,0,1,1.1,1.49,4.85,4.85,0,0,1,.38,2,4.69,4.69,0,0,1-.63,2.46,5.33,5.33,0,0,1-1.67,1.74,7.84,7.84,0,0,1-2.41,1,12.11,12.11,0,0,1-2.86.33A10.89,10.89,0,0,1,238.94,280.25Z"/><path class="cls-17" d="M258.29,257a1.94,1.94,0,0,1-1.4-.56,1.89,1.89,0,0,1-.58-1.42,2,2,0,0,1,2-2,2,2,0,0,1,1.43.57,2,2,0,0,1,0,2.83A2,2,0,0,1,258.29,257Zm1.49,24h-3.06V261.82h3.06Z"/><path class="cls-17" d="M281.74,272.15H268.23a7.2,7.2,0,0,0,1.72,4.93,6,6,0,0,0,4.52,1.73,9.37,9.37,0,0,0,5.94-2.13v2.88a11.1,11.1,0,0,1-6.67,1.83,8.12,8.12,0,0,1-6.37-2.6q-2.31-2.61-2.31-7.34a10.44,10.44,0,0,1,2.53-7.27,8.1,8.1,0,0,1,6.29-2.81,7.17,7.17,0,0,1,5.8,2.43,10.09,10.09,0,0,1,2.06,6.74Zm-3.14-2.6a6.22,6.22,0,0,0-1.28-4.13,4.37,4.37,0,0,0-3.5-1.48,4.93,4.93,0,0,0-3.68,1.56,7,7,0,0,0-1.87,4.05Z"/><path class="cls-17" d="M285.6,280.25V277a9.07,9.07,0,0,0,5.51,1.84c2.69,0,4-.89,4-2.69a2.3,2.3,0,0,0-.34-1.29,3.53,3.53,0,0,0-.94-.95,7.42,7.42,0,0,0-1.38-.74l-1.71-.68a19,19,0,0,1-2.23-1,6.7,6.7,0,0,1-1.61-1.15,4.33,4.33,0,0,1-1-1.47,5.15,5.15,0,0,1-.33-1.92,4.63,4.63,0,0,1,.62-2.39,5.41,5.41,0,0,1,1.64-1.73,7.75,7.75,0,0,1,2.35-1.06,10.68,10.68,0,0,1,2.72-.35,10.86,10.86,0,0,1,4.44.86v3.1a8.67,8.67,0,0,0-4.85-1.39,5.66,5.66,0,0,0-1.55.2,3.85,3.85,0,0,0-1.19.55,2.59,2.59,0,0,0-.77.85,2.26,2.26,0,0,0-.27,1.09,2.67,2.67,0,0,0,.27,1.26,2.78,2.78,0,0,0,.8.89,6,6,0,0,0,1.27.71l1.7.69c.84.33,1.6.66,2.28,1a8,8,0,0,1,1.71,1.16,4.54,4.54,0,0,1,1.1,1.49,4.85,4.85,0,0,1,.38,2,4.69,4.69,0,0,1-.63,2.46A5.23,5.23,0,0,1,296,280a7.73,7.73,0,0,1-2.41,1,12.11,12.11,0,0,1-2.86.33A10.82,10.82,0,0,1,285.6,280.25Z"/><path class="cls-17" d="M312.24,280.76a5.88,5.88,0,0,1-2.86.59c-3.35,0-5-1.86-5-5.6V264.43h-3.29v-2.61h3.29v-4.67l3.06-1v5.66h4.82v2.61h-4.82v10.78a4.41,4.41,0,0,0,.66,2.74,2.59,2.59,0,0,0,2.16.83,3.23,3.23,0,0,0,2-.64Z"/><path class="cls-17" d="M351.68,261.82l-5.74,19.12h-3.17l-3.95-13.69a8.81,8.81,0,0,1-.3-1.77h-.07a8.89,8.89,0,0,1-.39,1.73l-4.28,13.73h-3.06l-5.79-19.12h3.21l4,14.38a9,9,0,0,1,.26,1.72h.15a8,8,0,0,1,.34-1.76l4.41-14.34h2.8l4,14.42a11.71,11.71,0,0,1,.28,1.71h.15a8,8,0,0,1,.31-1.71l3.89-14.42Z"/><path class="cls-17" d="M369.3,280.94h-3.06v-3h-.08a6.39,6.39,0,0,1-5.88,3.44,6.29,6.29,0,0,1-4.48-1.51,5.27,5.27,0,0,1-1.61-4q0-5.36,6.31-6.24l5.74-.8q0-4.87-3.95-4.88a9.39,9.39,0,0,0-6.23,2.36v-3.14a11.88,11.88,0,0,1,6.5-1.79q6.74,0,6.74,7.13Zm-3.06-9.67-4.62.63a7.39,7.39,0,0,0-3.21,1.06,3,3,0,0,0-1.08,2.68,2.94,2.94,0,0,0,1,2.29,3.89,3.89,0,0,0,2.67.88,4.92,4.92,0,0,0,3.76-1.59,5.74,5.74,0,0,0,1.49-4.05Z"/><path class="cls-17" d="M390.68,261.82,381.88,284q-2.36,5.94-6.61,5.94a6.68,6.68,0,0,1-2-.25V287a5.79,5.79,0,0,0,1.81.34c1.54,0,2.7-.93,3.48-2.77l1.53-3.62-7.48-19.09H376l5.18,14.72c.06.18.19.67.39,1.45h.11c.07-.3.19-.77.38-1.42l5.43-14.75Z"/><path class="cls-17" d="M414.08,280.76a5.86,5.86,0,0,1-2.85.59c-3.35,0-5-1.86-5-5.6V264.43h-3.29v-2.61h3.29v-4.67l3.06-1v5.66h4.82v2.61h-4.82v10.78a4.41,4.41,0,0,0,.66,2.74,2.59,2.59,0,0,0,2.16.83,3.23,3.23,0,0,0,2-.64Z"/><path class="cls-17" d="M426.25,281.39a8.87,8.87,0,0,1-6.77-2.68A9.93,9.93,0,0,1,417,271.6a10.34,10.34,0,0,1,2.63-7.52,9.46,9.46,0,0,1,7.12-2.71,8.57,8.57,0,0,1,6.68,2.63,10.45,10.45,0,0,1,2.4,7.3,10.27,10.27,0,0,1-2.59,7.34A9.08,9.08,0,0,1,426.25,281.39Zm.23-17.45a5.81,5.81,0,0,0-4.67,2,8.24,8.24,0,0,0-1.72,5.54,7.77,7.77,0,0,0,1.74,5.36,5.87,5.87,0,0,0,4.65,2,5.58,5.58,0,0,0,4.56-1.92,8.32,8.32,0,0,0,1.6-5.47,8.46,8.46,0,0,0-1.6-5.53A5.55,5.55,0,0,0,426.48,263.94Z"/><path class="cls-17" d="M450.76,280.25V277a9.09,9.09,0,0,0,5.51,1.84c2.69,0,4-.89,4-2.69a2.3,2.3,0,0,0-.35-1.29,3.49,3.49,0,0,0-.93-.95,7.86,7.86,0,0,0-1.39-.74l-1.7-.68a19.15,19.15,0,0,1-2.24-1,6.64,6.64,0,0,1-1.6-1.15,4.36,4.36,0,0,1-1-1.47,5.36,5.36,0,0,1-.32-1.92,4.62,4.62,0,0,1,.61-2.39,5.45,5.45,0,0,1,1.65-1.73,7.58,7.58,0,0,1,2.34-1.06,10.73,10.73,0,0,1,2.72-.35,10.87,10.87,0,0,1,4.45.86v3.1a8.7,8.7,0,0,0-4.86-1.39,5.71,5.71,0,0,0-1.55.2,4,4,0,0,0-1.19.55,2.55,2.55,0,0,0-.76.85,2.26,2.26,0,0,0-.27,1.09,2.67,2.67,0,0,0,.27,1.26,2.75,2.75,0,0,0,.79.89,6,6,0,0,0,1.27.71l1.7.69c.85.33,1.61.66,2.28,1a8.33,8.33,0,0,1,1.72,1.16,4.51,4.51,0,0,1,1.09,1.49,5.3,5.3,0,0,1-.24,4.46,5.44,5.44,0,0,1-1.67,1.74,7.84,7.84,0,0,1-2.41,1,12.11,12.11,0,0,1-2.86.33A10.84,10.84,0,0,1,450.76,280.25Z"/><path class="cls-17" d="M484.41,280.94h-3.06v-11c0-4-1.48-6-4.45-6a4.85,4.85,0,0,0-3.77,1.73,6.44,6.44,0,0,0-1.53,4.44v10.83h-3.07V252.62h3.07V265h.07a7,7,0,0,1,6.28-3.62q6.46,0,6.46,7.79Z"/><path class="cls-17" d="M504.26,280.94h-3.07v-3h-.07a6.39,6.39,0,0,1-5.88,3.44,6.29,6.29,0,0,1-4.48-1.51,5.27,5.27,0,0,1-1.61-4q0-5.36,6.31-6.24l5.73-.8q0-4.87-3.94-4.88A9.44,9.44,0,0,0,491,266.3v-3.14a11.94,11.94,0,0,1,6.51-1.79q6.74,0,6.74,7.13Zm-3.07-9.67-4.61.63a7.39,7.39,0,0,0-3.21,1.06,3,3,0,0,0-1.09,2.68,3,3,0,0,0,1,2.29,3.89,3.89,0,0,0,2.67.88,4.92,4.92,0,0,0,3.76-1.59,5.73,5.73,0,0,0,1.48-4.05Z"/><path class="cls-17" d="M520.39,264.92a3.77,3.77,0,0,0-2.32-.62,3.92,3.92,0,0,0-3.28,1.85,8.59,8.59,0,0,0-1.31,5v9.75h-3.07V261.82h3.07v3.94h.07a6.65,6.65,0,0,1,2-3.15,4.59,4.59,0,0,1,3-1.13,5.15,5.15,0,0,1,1.83.26Z"/><path class="cls-17" d="M539,272.15H525.46a7.15,7.15,0,0,0,1.72,4.93,5.94,5.94,0,0,0,4.52,1.73,9.41,9.41,0,0,0,5.94-2.13v2.88a11.12,11.12,0,0,1-6.67,1.83,8.1,8.1,0,0,1-6.37-2.6c-1.54-1.74-2.32-4.19-2.32-7.34a10.48,10.48,0,0,1,2.53-7.27,8.11,8.11,0,0,1,6.29-2.81,7.19,7.19,0,0,1,5.81,2.43,10.09,10.09,0,0,1,2.06,6.74Zm-3.14-2.6a6.27,6.27,0,0,0-1.28-4.13,4.38,4.38,0,0,0-3.51-1.48,4.94,4.94,0,0,0-3.68,1.56,7,7,0,0,0-1.86,4.05Z"/><path class="cls-17" d="M568.53,280.94h-3.06v-3h-.07a6.42,6.42,0,0,1-5.89,3.44,6.28,6.28,0,0,1-4.47-1.51,5.24,5.24,0,0,1-1.62-4q0-5.36,6.32-6.24l5.73-.8q0-4.87-3.94-4.88a9.44,9.44,0,0,0-6.24,2.36v-3.14a11.9,11.9,0,0,1,6.5-1.79q6.75,0,6.74,7.13Zm-3.06-9.67-4.61.63a7.39,7.39,0,0,0-3.21,1.06,3,3,0,0,0-1.09,2.68,2.92,2.92,0,0,0,1,2.29,3.86,3.86,0,0,0,2.66.88,4.94,4.94,0,0,0,3.77-1.59,5.73,5.73,0,0,0,1.48-4.05Z"/><path class="cls-17" d="M590.57,280.94H587.5V270q0-6.09-4.44-6.09a4.83,4.83,0,0,0-3.8,1.73,6.37,6.37,0,0,0-1.51,4.36v10.91h-3.06V261.82h3.06V265h.08a6.88,6.88,0,0,1,6.27-3.62,5.83,5.83,0,0,1,4.8,2,9.05,9.05,0,0,1,1.67,5.86Z"/><path class="cls-17" d="M613.05,280.94H610v-3.25h-.07a7.72,7.72,0,0,1-12.34,1.13,10.51,10.51,0,0,1-2.16-7,11.42,11.42,0,0,1,2.4-7.6,7.85,7.85,0,0,1,6.36-2.86,6.14,6.14,0,0,1,5.74,3.1H610V252.62h3.07ZM610,272.3v-2.83a5.47,5.47,0,0,0-1.53-3.92,5.13,5.13,0,0,0-3.88-1.61,5.29,5.29,0,0,0-4.41,2.06,9,9,0,0,0-1.61,5.68,8.15,8.15,0,0,0,1.54,5.22,5,5,0,0,0,4.14,1.91,5.24,5.24,0,0,0,4.16-1.84A6.94,6.94,0,0,0,610,272.3Z"/><path class="cls-17" d="M153.32,326.85h-3.07v-11a8.25,8.25,0,0,0-1-4.6,3.72,3.72,0,0,0-3.29-1.42,4.09,4.09,0,0,0-3.34,1.8,6.86,6.86,0,0,0-1.37,4.29v10.91h-3.06V315.49q0-5.64-4.36-5.64a4,4,0,0,0-3.32,1.69,7,7,0,0,0-1.31,4.4v10.91h-3.06V307.72h3.06v3h.08a6.48,6.48,0,0,1,5.94-3.48,5.52,5.52,0,0,1,3.41,1.1,5.44,5.44,0,0,1,2,2.86,6.83,6.83,0,0,1,6.35-4q6.31,0,6.32,7.79Z"/><path class="cls-17" d="M173.18,326.85h-3.06v-3h-.07a6.44,6.44,0,0,1-5.89,3.44,6.28,6.28,0,0,1-4.47-1.51,5.24,5.24,0,0,1-1.62-4q0-5.36,6.32-6.24l5.73-.8q0-4.87-3.94-4.88a9.44,9.44,0,0,0-6.24,2.36v-3.14a11.83,11.83,0,0,1,6.5-1.8q6.75,0,6.74,7.14Zm-3.06-9.67-4.61.63a7.49,7.49,0,0,0-3.22,1.06,3,3,0,0,0-1.08,2.68,2.89,2.89,0,0,0,1,2.28,3.82,3.82,0,0,0,2.66.89,4.91,4.91,0,0,0,3.77-1.6,5.69,5.69,0,0,0,1.48-4Z"/><path class="cls-17" d="M195.22,326.85h-3.07V315.94q0-6.09-4.44-6.09a4.83,4.83,0,0,0-3.8,1.73,6.37,6.37,0,0,0-1.51,4.36v10.91h-3.06V307.72h3.06v3.18h.08a6.89,6.89,0,0,1,6.27-3.63,5.83,5.83,0,0,1,4.8,2,9,9,0,0,1,1.67,5.86Z"/><path class="cls-17" d="M215.06,326.85H212v-3h-.07A6.44,6.44,0,0,1,206,327.3a6.27,6.27,0,0,1-4.47-1.51,5.24,5.24,0,0,1-1.62-4q0-5.36,6.32-6.24l5.73-.8q0-4.87-3.94-4.88a9.42,9.42,0,0,0-6.24,2.36v-3.14a11.83,11.83,0,0,1,6.5-1.8q6.75,0,6.74,7.14ZM212,317.18l-4.61.63a7.49,7.49,0,0,0-3.22,1.06,3,3,0,0,0-1.08,2.68,2.89,2.89,0,0,0,1,2.28,3.82,3.82,0,0,0,2.66.89,4.93,4.93,0,0,0,3.77-1.6,5.69,5.69,0,0,0,1.48-4Z"/><path class="cls-17" d="M237.54,325.32q0,10.53-10.08,10.54a13.46,13.46,0,0,1-6.2-1.35v-3.06a12.75,12.75,0,0,0,6.16,1.79q7.07,0,7.06-7.51v-2.09h-.07a7.74,7.74,0,0,1-12.32,1.11,10.2,10.2,0,0,1-2.18-6.85,11.87,11.87,0,0,1,2.35-7.75,7.82,7.82,0,0,1,6.41-2.88,6.25,6.25,0,0,1,5.74,3.11h.07v-2.66h3.06Zm-3.06-7.12v-2.82a5.44,5.44,0,0,0-1.54-3.9,5.06,5.06,0,0,0-3.84-1.63,5.31,5.31,0,0,0-4.44,2.07,9.14,9.14,0,0,0-1.61,5.78,7.9,7.9,0,0,0,1.54,5.11,5,5,0,0,0,4.08,1.91,5.35,5.35,0,0,0,4.2-1.83A6.85,6.85,0,0,0,234.48,318.2Z"/><path class="cls-17" d="M259.5,318.05H246a7.12,7.12,0,0,0,1.72,4.93,5.91,5.91,0,0,0,4.52,1.74,9.41,9.41,0,0,0,5.94-2.13v2.88a11.14,11.14,0,0,1-6.67,1.83,8.06,8.06,0,0,1-6.37-2.61c-1.55-1.73-2.32-4.18-2.32-7.33a10.42,10.42,0,0,1,2.53-7.27,8.11,8.11,0,0,1,6.29-2.82,7.19,7.19,0,0,1,5.81,2.43,10.14,10.14,0,0,1,2.05,6.75Zm-3.14-2.59a6.22,6.22,0,0,0-1.28-4.13,4.33,4.33,0,0,0-3.5-1.48,5,5,0,0,0-3.68,1.55,7.09,7.09,0,0,0-1.87,4.06Z"/><path class="cls-17" d="M290.6,307.72l-8.79,22.19q-2.35,5.94-6.62,5.95a7.12,7.12,0,0,1-2-.25v-2.74a5.81,5.81,0,0,0,1.82.33q2.31,0,3.47-2.76l1.53-3.63-7.47-19.09h3.4l5.17,14.72c.07.19.2.67.4,1.46h.11c.06-.3.19-.77.37-1.42l5.44-14.76Z"/><path class="cls-17" d="M302.08,327.3a8.86,8.86,0,0,1-6.77-2.68,9.93,9.93,0,0,1-2.53-7.11,10.38,10.38,0,0,1,2.63-7.53,9.5,9.5,0,0,1,7.12-2.71,8.58,8.58,0,0,1,6.68,2.64,10.43,10.43,0,0,1,2.4,7.3,10.24,10.24,0,0,1-2.59,7.33A9.05,9.05,0,0,1,302.08,327.3Zm.23-17.45a5.81,5.81,0,0,0-4.67,2,8.24,8.24,0,0,0-1.72,5.54,7.79,7.79,0,0,0,1.74,5.36,5.87,5.87,0,0,0,4.65,2,5.58,5.58,0,0,0,4.56-1.92,8.33,8.33,0,0,0,1.6-5.48,8.43,8.43,0,0,0-1.6-5.52A5.55,5.55,0,0,0,302.31,309.85Z"/><path class="cls-17" d="M332.35,326.85h-3.06v-3h-.08a6.28,6.28,0,0,1-5.9,3.48q-6.84,0-6.84-8.15V307.72h3v10.95q0,6,4.63,6.05a4.68,4.68,0,0,0,3.69-1.65,6.3,6.3,0,0,0,1.45-4.33v-11h3.06Z"/><path class="cls-17" d="M348.89,310.82a3.72,3.72,0,0,0-2.31-.61,3.9,3.9,0,0,0-3.28,1.85,8.52,8.52,0,0,0-1.32,5v9.75h-3.06V307.72H342v3.94h.08a6.59,6.59,0,0,1,2-3.14,4.49,4.49,0,0,1,3-1.13,4.86,4.86,0,0,1,1.83.26Z"/><path class="cls-17" d="M383.9,325a17.91,17.91,0,0,1-9,2.28,12.23,12.23,0,0,1-9.27-3.7,13.56,13.56,0,0,1-3.54-9.79,14,14,0,0,1,3.93-10.21,13.39,13.39,0,0,1,10-4,16.91,16.91,0,0,1,7.34,1.42v3.47a14.13,14.13,0,0,0-7.7-2.05,9.61,9.61,0,0,0-7.38,3.1,11.31,11.31,0,0,0-2.87,8q0,5.09,2.67,8a9.34,9.34,0,0,0,7.24,2.91,11.24,11.24,0,0,0,5.44-1.25v-7.51H374.9v-2.84h9Z"/><path class="cls-17" d="M391.66,302.87a2,2,0,0,1-1.4-.56,2,2,0,0,1,0-2.85,1.92,1.92,0,0,1,1.4-.57,2,2,0,0,1,1.43.57,2,2,0,0,1,0,2.83A2,2,0,0,1,391.66,302.87Zm1.49,24h-3.06V307.72h3.06Z"/><path class="cls-17" d="M408.61,326.66a5.87,5.87,0,0,1-2.86.6q-5,0-5-5.6V310.34h-3.29v-2.62h3.29v-4.67l3.06-1v5.66h4.82v2.62h-4.82v10.78a4.43,4.43,0,0,0,.66,2.74,2.58,2.58,0,0,0,2.16.82,3.25,3.25,0,0,0,2-.63Z"/><path class="cls-17" d="M415.89,322.59l-3,9.19h-2.19l2.19-9.19Z"/><path class="cls-17" d="M460.34,326.85h-3.12v-18c0-1.42.09-3.16.27-5.21h-.08a17.93,17.93,0,0,1-.8,2.6l-9.16,20.58h-1.53l-9.13-20.43a16.84,16.84,0,0,1-.81-2.75h-.07q.15,1.6.15,5.25v17.93h-3V300.06h4.15l8.22,18.68a24,24,0,0,1,1.23,3.22h.11c.54-1.47,1-2.57,1.29-3.29l8.39-18.61h3.92Z"/><path class="cls-17" d="M482.73,318.05h-13.5a7.11,7.11,0,0,0,1.71,4.93,5.94,5.94,0,0,0,4.52,1.74,9.37,9.37,0,0,0,5.94-2.13v2.88a11.08,11.08,0,0,1-6.66,1.83,8.06,8.06,0,0,1-6.37-2.61c-1.55-1.73-2.32-4.18-2.32-7.33a10.42,10.42,0,0,1,2.53-7.27,8.11,8.11,0,0,1,6.29-2.82,7.19,7.19,0,0,1,5.81,2.43,10.14,10.14,0,0,1,2.05,6.75Zm-3.14-2.59a6.22,6.22,0,0,0-1.28-4.13,4.33,4.33,0,0,0-3.5-1.48,5,5,0,0,0-3.68,1.55,7.09,7.09,0,0,0-1.87,4.06Z"/><path class="cls-17" d="M497.72,310.82a3.75,3.75,0,0,0-2.32-.61,3.88,3.88,0,0,0-3.27,1.85,8.52,8.52,0,0,0-1.32,5v9.75h-3.06V307.72h3.06v3.94h.07a6.75,6.75,0,0,1,2-3.14,4.53,4.53,0,0,1,3-1.13,4.86,4.86,0,0,1,1.83.26Z"/><path class="cls-17" d="M514,326a9.9,9.9,0,0,1-5.23,1.33,8.67,8.67,0,0,1-6.6-2.66,9.64,9.64,0,0,1-2.51-6.9,10.59,10.59,0,0,1,2.71-7.6,9.47,9.47,0,0,1,7.23-2.87,10.07,10.07,0,0,1,4.44.94v3.14a7.77,7.77,0,0,0-4.56-1.5,6.17,6.17,0,0,0-4.81,2.1,8,8,0,0,0-1.87,5.52,7.58,7.58,0,0,0,1.76,5.31,6.11,6.11,0,0,0,4.74,1.94,7.66,7.66,0,0,0,4.7-1.66Z"/><path class="cls-17" d="M534.44,326.85h-3.06v-3h-.07a6.29,6.29,0,0,1-5.91,3.48q-6.82,0-6.83-8.15V307.72h3v10.95c0,4,1.55,6.05,4.63,6.05a4.68,4.68,0,0,0,3.69-1.65,6.3,6.3,0,0,0,1.45-4.33v-11h3.06Z"/><path class="cls-17" d="M551,310.82a3.77,3.77,0,0,0-2.32-.61,3.9,3.9,0,0,0-3.28,1.85,8.52,8.52,0,0,0-1.32,5v9.75H541V307.72h3.06v3.94h.08a6.59,6.59,0,0,1,2-3.14,4.51,4.51,0,0,1,3-1.13,5,5,0,0,1,1.84.26Z"/><path class="cls-17" d="M556.26,302.87a2,2,0,0,1-1.4-.56,2,2,0,0,1,1.4-3.42,2,2,0,0,1,1.43.57,2,2,0,0,1,0,2.83A2,2,0,0,1,556.26,302.87Zm1.5,24h-3.07V307.72h3.07Z"/><path class="cls-17" d="M578,326.85H575v-3h-.07A6.44,6.44,0,0,1,569,327.3a6.27,6.27,0,0,1-4.47-1.51,5.24,5.24,0,0,1-1.62-4q0-5.36,6.32-6.24l5.73-.8q0-4.87-3.94-4.88a9.44,9.44,0,0,0-6.24,2.36v-3.14a11.83,11.83,0,0,1,6.5-1.8q6.75,0,6.74,7.14ZM575,317.18l-4.61.63a7.49,7.49,0,0,0-3.22,1.06,3,3,0,0,0-1.08,2.68,2.89,2.89,0,0,0,1,2.28,3.82,3.82,0,0,0,2.66.89,4.91,4.91,0,0,0,3.77-1.6,5.69,5.69,0,0,0,1.48-4Z"/><path class="cls-17" d="M587.25,326.85h-3.06V298.53h3.06Z"/><path class="cls-17" d="M139.85,372.76h-3.06v-3h-.08a6.41,6.41,0,0,1-5.88,3.44,6.3,6.3,0,0,1-4.48-1.52,5.24,5.24,0,0,1-1.61-4c0-3.58,2.1-5.65,6.31-6.24l5.74-.8c0-3.25-1.32-4.88-3.94-4.88a9.44,9.44,0,0,0-6.24,2.35V355a11.8,11.8,0,0,1,6.5-1.8q6.73,0,6.74,7.14Zm-3.06-9.68-4.62.64a7.54,7.54,0,0,0-3.21,1,3.06,3.06,0,0,0-1.08,2.68,2.9,2.9,0,0,0,1,2.29,3.85,3.85,0,0,0,2.66.89,4.89,4.89,0,0,0,3.76-1.6,5.69,5.69,0,0,0,1.49-4Z"/><path class="cls-17" d="M161.88,372.76h-3.06V361.85q0-6.09-4.45-6.09a4.83,4.83,0,0,0-3.8,1.73,6.4,6.4,0,0,0-1.5,4.36v10.91H146V353.63h3.06v3.18h.07a6.91,6.91,0,0,1,6.28-3.63,5.86,5.86,0,0,1,4.8,2,9,9,0,0,1,1.66,5.86Z"/><path class="cls-17" d="M184.36,372.76H181.3v-3.25h-.07a7.08,7.08,0,0,1-6.58,3.7,7.15,7.15,0,0,1-5.76-2.57,10.52,10.52,0,0,1-2.16-7,11.49,11.49,0,0,1,2.39-7.6,7.9,7.9,0,0,1,6.37-2.86,6.15,6.15,0,0,1,5.74,3.1h.07V344.44h3.06Zm-3.06-8.65v-2.82a5.47,5.47,0,0,0-1.53-3.92,5.15,5.15,0,0,0-3.89-1.61,5.32,5.32,0,0,0-4.41,2.06,9,9,0,0,0-1.6,5.67,8.11,8.11,0,0,0,1.54,5.23,5.06,5.06,0,0,0,4.14,1.91,5.23,5.23,0,0,0,4.15-1.85A6.86,6.86,0,0,0,181.3,364.11Z"/><path class="cls-17" d="M201,371.68V368a7.3,7.3,0,0,0,1.52,1,12.8,12.8,0,0,0,1.87.75,13.79,13.79,0,0,0,2,.48,11.22,11.22,0,0,0,1.83.17,7.18,7.18,0,0,0,4.33-1.08,4.06,4.06,0,0,0,.95-5,5.45,5.45,0,0,0-1.32-1.46,12.66,12.66,0,0,0-2-1.27c-.76-.41-1.59-.83-2.47-1.28s-1.81-.95-2.62-1.44a11.38,11.38,0,0,1-2.11-1.61,6.45,6.45,0,0,1-1.41-2,6.81,6.81,0,0,1,.29-5.79,7,7,0,0,1,2.11-2.23,9.82,9.82,0,0,1,3-1.31,13.92,13.92,0,0,1,3.41-.43,13,13,0,0,1,5.77,1V350a10.43,10.43,0,0,0-6.09-1.65,10.21,10.21,0,0,0-2.05.22,5.49,5.49,0,0,0-1.83.7,3.92,3.92,0,0,0-1.31,1.25,3.29,3.29,0,0,0-.51,1.87,3.76,3.76,0,0,0,.39,1.77,4.24,4.24,0,0,0,1.13,1.37,10.82,10.82,0,0,0,1.82,1.19c.71.39,1.54.81,2.47,1.27s1.87,1,2.73,1.5a12.59,12.59,0,0,1,2.26,1.73,7.77,7.77,0,0,1,1.54,2.11,6,6,0,0,1,.57,2.66,6.77,6.77,0,0,1-.77,3.35,6.32,6.32,0,0,1-2.1,2.23,8.83,8.83,0,0,1-3,1.24,16.33,16.33,0,0,1-3.62.39c-.43,0-1,0-1.57-.1s-1.26-.17-1.91-.3a15.91,15.91,0,0,1-1.84-.49A5.86,5.86,0,0,1,201,371.68Z"/><path class="cls-17" d="M238,372.76h-3.06v-3h-.07a6.3,6.3,0,0,1-5.91,3.48q-6.84,0-6.83-8.15V353.63h3v10.95q0,6,4.63,6.05a4.68,4.68,0,0,0,3.69-1.65,6.33,6.33,0,0,0,1.45-4.33v-11H238Z"/><path class="cls-17" d="M247.69,370h-.08v2.77h-3.06V344.44h3.06V357h.08a7.23,7.23,0,0,1,6.61-3.81,7,7,0,0,1,5.76,2.57,10.61,10.61,0,0,1,2.09,6.89,11.81,11.81,0,0,1-2.34,7.68,7.77,7.77,0,0,1-6.39,2.89A6.27,6.27,0,0,1,247.69,370Zm-.08-7.71V365a5.75,5.75,0,0,0,1.54,4,5.51,5.51,0,0,0,8.28-.48,9.78,9.78,0,0,0,1.58-5.92,7.75,7.75,0,0,0-1.48-5,4.88,4.88,0,0,0-4-1.81,5.41,5.41,0,0,0-4.29,1.86A6.79,6.79,0,0,0,247.61,362.28Z"/><path class="cls-17" d="M282.46,353.63l-7.62,19.13h-3l-7.25-19.13h3.36l4.86,13.9a12.07,12.07,0,0,1,.67,2.67h.08a12.1,12.1,0,0,1,.6-2.6l5.08-14Z"/><path class="cls-17" d="M301.28,364H287.77a7.16,7.16,0,0,0,1.72,4.93,5.92,5.92,0,0,0,4.52,1.74A9.37,9.37,0,0,0,300,368.5v2.88a11.1,11.1,0,0,1-6.67,1.83,8.09,8.09,0,0,1-6.37-2.61q-2.31-2.61-2.31-7.33a10.46,10.46,0,0,1,2.53-7.28,8.12,8.12,0,0,1,6.28-2.81,7.18,7.18,0,0,1,5.81,2.43,10.14,10.14,0,0,1,2.06,6.75Zm-3.14-2.6a6.21,6.21,0,0,0-1.28-4.12,4.34,4.34,0,0,0-3.5-1.48,5,5,0,0,0-3.68,1.55,7.09,7.09,0,0,0-1.87,4.05Z"/><path class="cls-17" d="M316.27,356.73a3.77,3.77,0,0,0-2.32-.61,3.92,3.92,0,0,0-3.28,1.84,8.64,8.64,0,0,0-1.31,5.05v9.75h-3.07V353.63h3.07v3.94h.07a6.67,6.67,0,0,1,2-3.14,4.54,4.54,0,0,1,3-1.14,4.87,4.87,0,0,1,1.83.27Z"/><path class="cls-17" d="M319.08,372.07v-3.29a9.1,9.1,0,0,0,5.51,1.85q4,0,4-2.69a2.36,2.36,0,0,0-.35-1.3,3.46,3.46,0,0,0-.93-.94A7.26,7.26,0,0,0,326,365l-1.71-.68a24,24,0,0,1-2.23-1,6.66,6.66,0,0,1-1.6-1.16,4.42,4.42,0,0,1-1-1.46,5.38,5.38,0,0,1-.32-1.93,4.58,4.58,0,0,1,.61-2.38,5.47,5.47,0,0,1,1.65-1.74,7.57,7.57,0,0,1,2.34-1,10.31,10.31,0,0,1,2.72-.36,11,11,0,0,1,4.45.86v3.1a8.69,8.69,0,0,0-4.86-1.38,5.71,5.71,0,0,0-1.55.2,3.73,3.73,0,0,0-1.19.55,2.46,2.46,0,0,0-.76.85,2.23,2.23,0,0,0-.27,1.09,2.6,2.6,0,0,0,.27,1.25,2.68,2.68,0,0,0,.79.9,6,6,0,0,0,1.27.71l1.7.69a22.77,22.77,0,0,1,2.28,1,8,8,0,0,1,1.72,1.16,4.48,4.48,0,0,1,1.09,1.48,5.33,5.33,0,0,1-.24,4.47,5.51,5.51,0,0,1-1.67,1.73,7.38,7.38,0,0,1-2.41,1,11.67,11.67,0,0,1-2.86.34A10.84,10.84,0,0,1,319.08,372.07Z"/><path class="cls-17" d="M338.42,348.77a2,2,0,1,1,0-4,2,2,0,0,1,1.43.57,2,2,0,0,1,0,2.82A2,2,0,0,1,338.42,348.77Zm1.5,24h-3.07V353.63h3.07Z"/><path class="cls-17" d="M354.5,373.21a8.92,8.92,0,0,1-6.78-2.68,10,10,0,0,1-2.53-7.11,10.35,10.35,0,0,1,2.64-7.53,9.48,9.48,0,0,1,7.11-2.71,8.56,8.56,0,0,1,6.68,2.64,10.43,10.43,0,0,1,2.4,7.3,10.28,10.28,0,0,1-2.58,7.33A9.07,9.07,0,0,1,354.5,373.21Zm.22-17.45a5.83,5.83,0,0,0-4.67,2,8.22,8.22,0,0,0-1.72,5.54,7.8,7.8,0,0,0,1.74,5.36,5.9,5.9,0,0,0,4.65,2,5.62,5.62,0,0,0,4.57-1.92,8.4,8.4,0,0,0,1.59-5.48,8.53,8.53,0,0,0-1.59-5.53A5.6,5.6,0,0,0,354.72,355.76Z"/><path class="cls-17" d="M385.18,372.76h-3.07V361.85q0-6.09-4.44-6.09a4.83,4.83,0,0,0-3.8,1.73,6.36,6.36,0,0,0-1.51,4.36v10.91H369.3V353.63h3.06v3.18h.08a6.89,6.89,0,0,1,6.27-3.63,5.87,5.87,0,0,1,4.81,2,9.07,9.07,0,0,1,1.66,5.86Z"/><path class="cls-17" d="M412.17,356.73a3.77,3.77,0,0,0-2.32-.61,3.92,3.92,0,0,0-3.28,1.84,8.64,8.64,0,0,0-1.31,5.05v9.75h-3.07V353.63h3.07v3.94h.07a6.67,6.67,0,0,1,2-3.14,4.54,4.54,0,0,1,3-1.14,4.83,4.83,0,0,1,1.83.27Z"/><path class="cls-17" d="M430.75,364H417.24a7.12,7.12,0,0,0,1.72,4.93,5.92,5.92,0,0,0,4.52,1.74,9.41,9.41,0,0,0,5.94-2.13v2.88a11.1,11.1,0,0,1-6.67,1.83,8.09,8.09,0,0,1-6.37-2.61c-1.54-1.74-2.32-4.18-2.32-7.33A10.47,10.47,0,0,1,416.6,356a8.11,8.11,0,0,1,6.28-2.81,7.18,7.18,0,0,1,5.81,2.43,10.14,10.14,0,0,1,2.06,6.75Zm-3.14-2.6a6.21,6.21,0,0,0-1.28-4.12,4.34,4.34,0,0,0-3.5-1.48,4.94,4.94,0,0,0-3.68,1.55,7,7,0,0,0-1.87,4.05Z"/><path class="cls-17" d="M438.9,370h-.08v11.57h-3.06V353.63h3.06V357h.08a7.25,7.25,0,0,1,6.61-3.81,7,7,0,0,1,5.77,2.57,10.6,10.6,0,0,1,2.08,6.89,11.81,11.81,0,0,1-2.34,7.68,7.74,7.74,0,0,1-6.39,2.89A6.39,6.39,0,0,1,438.9,370Zm-.08-7.71V365a5.71,5.71,0,0,0,1.55,4,5.5,5.5,0,0,0,8.27-.48,9.78,9.78,0,0,0,1.58-5.92,7.69,7.69,0,0,0-1.48-5,4.86,4.86,0,0,0-4-1.81,5.43,5.43,0,0,0-4.3,1.86A6.84,6.84,0,0,0,438.82,362.28Z"/><path class="cls-17" d="M466.63,373.21a8.89,8.89,0,0,1-6.77-2.68,9.93,9.93,0,0,1-2.53-7.11c0-3.21.87-5.72,2.63-7.53a9.5,9.5,0,0,1,7.12-2.71,8.58,8.58,0,0,1,6.68,2.64,10.43,10.43,0,0,1,2.4,7.3,10.28,10.28,0,0,1-2.59,7.33A9.07,9.07,0,0,1,466.63,373.21Zm.22-17.45a5.84,5.84,0,0,0-4.67,2,8.27,8.27,0,0,0-1.71,5.54,7.8,7.8,0,0,0,1.73,5.36,5.9,5.9,0,0,0,4.65,2,5.61,5.61,0,0,0,4.57-1.92,8.35,8.35,0,0,0,1.6-5.48,8.48,8.48,0,0,0-1.6-5.53A5.59,5.59,0,0,0,466.85,355.76Z"/><path class="cls-17" d="M480.27,372.07v-3.29a9.1,9.1,0,0,0,5.51,1.85c2.7,0,4-.9,4-2.69a2.36,2.36,0,0,0-.35-1.3,3.46,3.46,0,0,0-.93-.94,6.87,6.87,0,0,0-1.38-.74l-1.71-.68a22.89,22.89,0,0,1-2.23-1,6.53,6.53,0,0,1-1.61-1.16,4.39,4.39,0,0,1-1-1.46,5.16,5.16,0,0,1-.33-1.93,4.59,4.59,0,0,1,.62-2.38,5.55,5.55,0,0,1,1.64-1.74,7.73,7.73,0,0,1,2.35-1,10.18,10.18,0,0,1,2.71-.36,11,11,0,0,1,4.45.86v3.1a8.69,8.69,0,0,0-4.86-1.38,5.71,5.71,0,0,0-1.55.2,3.68,3.68,0,0,0-1.18.55,2.49,2.49,0,0,0-.77.85,2.23,2.23,0,0,0-.27,1.09,2.6,2.6,0,0,0,.27,1.25,2.79,2.79,0,0,0,.79.9,6.31,6.31,0,0,0,1.27.71l1.7.69a22.77,22.77,0,0,1,2.28,1,7.49,7.49,0,0,1,1.72,1.16,4.34,4.34,0,0,1,1.09,1.48,5.23,5.23,0,0,1-.24,4.47,5.4,5.4,0,0,1-1.67,1.73,7.38,7.38,0,0,1-2.41,1,11.61,11.61,0,0,1-2.86.34A10.86,10.86,0,0,1,480.27,372.07Z"/><path class="cls-17" d="M499.62,348.77a1.9,1.9,0,0,1-1.4-.56,1.86,1.86,0,0,1-.58-1.42,2,2,0,0,1,2-2,2,2,0,0,1,1.43.57,2,2,0,0,1,0,2.82A2,2,0,0,1,499.62,348.77Zm1.49,24h-3.06V353.63h3.06Z"/><path class="cls-17" d="M516.57,372.57a5.9,5.9,0,0,1-2.86.6q-5,0-5-5.6V356.25H505.4v-2.62h3.29V349l3.06-1v5.66h4.82v2.62h-4.82V367a4.5,4.5,0,0,0,.65,2.74,2.61,2.61,0,0,0,2.17.82,3.25,3.25,0,0,0,2-.63Z"/><path class="cls-17" d="M528.74,373.21a8.88,8.88,0,0,1-6.77-2.68,9.93,9.93,0,0,1-2.53-7.11c0-3.21.87-5.72,2.63-7.53a9.49,9.49,0,0,1,7.12-2.71,8.55,8.55,0,0,1,6.67,2.64,10.43,10.43,0,0,1,2.41,7.3,10.28,10.28,0,0,1-2.59,7.33A9.07,9.07,0,0,1,528.74,373.21Zm.22-17.45a5.83,5.83,0,0,0-4.67,2,8.27,8.27,0,0,0-1.72,5.54,7.8,7.8,0,0,0,1.74,5.36,5.9,5.9,0,0,0,4.65,2,5.62,5.62,0,0,0,4.57-1.92,8.4,8.4,0,0,0,1.6-5.48,8.53,8.53,0,0,0-1.6-5.53A5.6,5.6,0,0,0,529,355.76Z"/><path class="cls-17" d="M553.52,356.73a3.77,3.77,0,0,0-2.32-.61,3.91,3.91,0,0,0-3.28,1.84,8.57,8.57,0,0,0-1.31,5.05v9.75h-3.07V353.63h3.07v3.94h.07a6.67,6.67,0,0,1,2-3.14,4.54,4.54,0,0,1,3-1.14,4.9,4.9,0,0,1,1.83.27Z"/><path class="cls-17" d="M558.79,348.77a1.93,1.93,0,0,1-1.4-.56,1.9,1.9,0,0,1-.58-1.42,2,2,0,0,1,2-2,2,2,0,0,1,1.43.57,2,2,0,0,1,0,2.82A2,2,0,0,1,558.79,348.77Zm1.5,24h-3.07V353.63h3.07Z"/><path class="cls-17" d="M582.25,364H568.74a7.12,7.12,0,0,0,1.72,4.93,5.91,5.91,0,0,0,4.52,1.74,9.41,9.41,0,0,0,5.94-2.13v2.88a11.1,11.1,0,0,1-6.67,1.83,8.08,8.08,0,0,1-6.37-2.61c-1.54-1.74-2.32-4.18-2.32-7.33A10.47,10.47,0,0,1,568.1,356a8.11,8.11,0,0,1,6.28-2.81,7.19,7.19,0,0,1,5.81,2.43,10.14,10.14,0,0,1,2.06,6.75Zm-3.14-2.6a6.26,6.26,0,0,0-1.28-4.12,4.35,4.35,0,0,0-3.51-1.48,4.93,4.93,0,0,0-3.67,1.55,7,7,0,0,0-1.87,4.05Z"/><path class="cls-17" d="M586.1,372.07v-3.29a9.1,9.1,0,0,0,5.51,1.85q4,0,4-2.69a2.36,2.36,0,0,0-.35-1.3,3.46,3.46,0,0,0-.93-.94A6.87,6.87,0,0,0,593,365l-1.71-.68a24.3,24.3,0,0,1-2.24-1,6.66,6.66,0,0,1-1.6-1.16,4.24,4.24,0,0,1-1-1.46,5.16,5.16,0,0,1-.33-1.93,4.59,4.59,0,0,1,.62-2.38,5.55,5.55,0,0,1,1.64-1.74,7.67,7.67,0,0,1,2.34-1,10.31,10.31,0,0,1,2.72-.36,11,11,0,0,1,4.45.86v3.1a8.69,8.69,0,0,0-4.86-1.38,5.71,5.71,0,0,0-1.55.2,3.73,3.73,0,0,0-1.19.55,2.46,2.46,0,0,0-.76.85,2.23,2.23,0,0,0-.27,1.09,2.6,2.6,0,0,0,.27,1.25,2.68,2.68,0,0,0,.79.9,6,6,0,0,0,1.27.71l1.7.69a22.77,22.77,0,0,1,2.28,1,7.72,7.72,0,0,1,1.72,1.16,4.48,4.48,0,0,1,1.09,1.48,5.23,5.23,0,0,1-.24,4.47,5.4,5.4,0,0,1-1.67,1.73,7.38,7.38,0,0,1-2.41,1,11.61,11.61,0,0,1-2.86.34A10.86,10.86,0,0,1,586.1,372.07Z"/><path class="cls-17" d="M604.94,373.17a2,2,0,0,1-1.47-.62,2,2,0,0,1-.6-1.47,2.09,2.09,0,0,1,.6-1.49,2,2,0,0,1,1.47-.62,2.1,2.1,0,0,1,2.11,2.11,2,2,0,0,1-.61,1.47A2.06,2.06,0,0,1,604.94,373.17Z"/></svg>